<svg width="1024" height="1024" viewBox="0 0 1024 1024" fill="none" xmlns="http://www.w3.org/2000/svg">
<style>
@keyframes kf_right-eye_transform_0 {
  0% {
    transform: translateX(472.523px) translateY(215.382px) translate(5.556px, 8.53px) scaleY(1) translate(-5.556px, -8.53px);
  }
  35% {
    transform: translateX(472.523px) translateY(215.382px) translate(5.556px, 8.53px) scaleY(1) translate(-5.556px, -8.53px);
  }
  39% {
    transform: translateX(472.523px) translateY(215.382px) translate(5.556px, 8.53px) scaleY(0.05) translate(-5.556px, -8.53px);
  }
  44% {
    transform: translateX(472.523px) translateY(215.382px) translate(5.556px, 8.53px) scaleY(1) translate(-5.556px, -8.53px);
  }
  75% {
    transform: translateX(472.523px) translateY(215.382px) translate(5.556px, 8.53px) scaleY(1) translate(-5.556px, -8.53px);
  }
  79% {
    transform: translateX(472.523px) translateY(215.382px) translate(5.556px, 8.53px) scaleY(0.05) translate(-5.556px, -8.53px);
  }
  84% {
    transform: translateX(472.523px) translateY(215.382px) translate(5.556px, 8.53px) scaleY(1) translate(-5.556px, -8.53px);
  }
  100% {
    transform: translateX(472.523px) translateY(215.382px) translate(5.556px, 8.53px) scaleY(1) translate(-5.556px, -8.53px);
  }
}
#right-eye {
  transform-origin: 0 0;
  animation: kf_right-eye_transform_0 2s linear infinite;
}
@keyframes kf_left-eye_transform_0 {
  0% {
    transform: translateX(538.675px) translateY(212.369px) translate(5.515px, 8.564px) scaleY(1) translate(-5.515px, -8.564px);
  }
  35% {
    transform: translateX(538.675px) translateY(212.369px) translate(5.515px, 8.564px) scaleY(1) translate(-5.515px, -8.564px);
  }
  39% {
    transform: translateX(538.675px) translateY(212.369px) translate(5.515px, 8.564px) scaleY(0.05) translate(-5.515px, -8.564px);
  }
  44% {
    transform: translateX(538.675px) translateY(212.369px) translate(5.515px, 8.564px) scaleY(1) translate(-5.515px, -8.564px);
  }
  75% {
    transform: translateX(538.675px) translateY(212.369px) translate(5.515px, 8.564px) scaleY(1) translate(-5.515px, -8.564px);
  }
  79% {
    transform: translateX(538.675px) translateY(212.369px) translate(5.515px, 8.564px) scaleY(0.05) translate(-5.515px, -8.564px);
  }
  84% {
    transform: translateX(538.675px) translateY(212.369px) translate(5.515px, 8.564px) scaleY(1) translate(-5.515px, -8.564px);
  }
  100% {
    transform: translateX(538.675px) translateY(212.369px) translate(5.515px, 8.564px) scaleY(1) translate(-5.515px, -8.564px);
  }
}
#left-eye {
  transform-origin: 0 0;
  animation: kf_left-eye_transform_0 2s linear infinite;
}
@keyframes kf_mouth_transform_0 {
  0% {
    animation-timing-function: ease-in-out;
    transform: translateX(505.47px) translateY(264.862px) translate(52.612px, 46.481px) scaleX(1) scaleY(1) translate(-52.612px, -46.481px);
  }
  40% {
    animation-timing-function: ease-in-out;
    transform: translateX(505.47px) translateY(264.862px) translate(52.612px, 46.481px) scaleX(1.03) scaleY(1.05) translate(-52.612px, -46.481px);
  }
  80% {
    transform: translateX(505.47px) translateY(264.862px) translate(52.612px, 46.481px) scaleX(1) scaleY(1) translate(-52.612px, -46.481px);
  }
  100% {
    transform: translateX(505.47px) translateY(264.862px) translate(52.612px, 46.481px) scaleX(1) scaleY(1) translate(-52.612px, -46.481px);
  }
}
#mouth {
  transform-origin: 0 0;
  animation: kf_mouth_transform_0 2s linear infinite;
}
@keyframes kf_game-console_transform_0 {
  0% {
    transform: translateX(303.958px) translateY(429.911px) translateX(0px) translateY(0px);
  }
  6% {
    transform: translateX(303.958px) translateY(429.911px) translateX(1.5px) translateY(-0.64px);
  }
  7.5% {
    transform: translateX(303.958px) translateY(429.911px) translateX(0.875px) translateY(-0.8px);
  }
  12% {
    transform: translateX(303.958px) translateY(429.911px) translateX(-1px) translateY(-0.02px);
  }
  15% {
    transform: translateX(303.958px) translateY(429.911px) translateX(0.1px) translateY(0.5px);
  }
  18% {
    transform: translateX(303.958px) translateY(429.911px) translateX(1.2px) translateY(0.35px);
  }
  25% {
    transform: translateX(303.958px) translateY(429.911px) translateX(0px) translateY(0px);
  }
  42.5% {
    transform: translateX(303.958px) translateY(429.911px) translateX(0px) translateY(0px);
  }
  48.5% {
    transform: translateX(303.958px) translateY(429.911px) translateX(-1.3px) translateY(0.56px);
  }
  50% {
    transform: translateX(303.958px) translateY(429.911px) translateX(-0.725px) translateY(0.7px);
  }
  54.5% {
    transform: translateX(303.958px) translateY(429.911px) translateX(1px) translateY(-0.08px);
  }
  57.5% {
    transform: translateX(303.958px) translateY(429.911px) translateX(-0.25px) translateY(-0.6px);
  }
  60.5% {
    transform: translateX(303.958px) translateY(429.911px) translateX(-1.5px) translateY(-0.42px);
  }
  67.5% {
    transform: translateX(303.958px) translateY(429.911px) translateX(0px) translateY(0px);
  }
  85% {
    transform: translateX(303.958px) translateY(429.911px) translateX(0px) translateY(0px);
  }
  91% {
    transform: translateX(303.958px) translateY(429.911px) translateX(1.2px) translateY(-0.64px);
  }
  92.5% {
    transform: translateX(303.958px) translateY(429.911px) translateX(0.65px) translateY(-0.8px);
  }
  97% {
    transform: translateX(303.958px) translateY(429.911px) translateX(-1px) translateY(-0.32px);
  }
  100% {
    transform: translateX(303.958px) translateY(429.911px) translateX(0px) translateY(0px);
  }
}
#game-console {
  transform-origin: 0 0;
  animation: kf_game-console_transform_0 2s linear infinite;
}
</style>
<g id="StockCake-vectorize_svg-10000787764_1" clip-path="url(#clip0_43_3854)">
<g id="body-outline" transform="translate(181.402 58.4619)">
<path id="Vector_5" transform="translate(237.098 2.03809)" d="M7.5 114V105V101.5L3.5 99.5L0 88.5L2 75L5.5 65L19 51.5L30 43.5L37.5 35L42 25L51 14.5L68 7.5L85 6.5L110.5 11H126.5L145.5 3.5L153.5 0L155 8.5L149 17L166 18.5L181.5 26L200 40.5L207 54.5V59L204 60H202L208.5 75L210.5 87.5L207 101.5L200.5 136L195 151.5L162.5 180H82.5L37 154.5L24.5 147.5L11 119L7.5 114Z" fill="white" stroke="black"/>
<path id="Vector" d="M389.948 3.77213C353.163 32.5846 320.598 -4.94437 288.989 19.6641C286.345 21.6911 284.012 24.0926 282.062 26.7931C279.849 29.8881 276.182 38.9936 274.423 39.3171C273.764 38.4431 273.025 36.8026 273.287 35.7441C279.16 11.9851 306.182 2.31212 328.183 7.03512C343.503 10.3251 356.813 12.7626 371.583 8.14162C378.288 6.39562 383.918 2.09212 390.448 0.0261247C391.133 -0.190875 392.618 0.998626 392.978 1.57313C395.863 6.20213 393.648 12.5776 391.518 16.9021C408.993 18.2596 425.228 26.4596 436.688 39.7191C440.453 44.0921 448.943 57.1041 445.308 62.6756C443.903 63.3691 443.868 63.0716 442.058 62.9376C442.058 65.4926 446.478 71.6156 447.458 74.9416C449.568 82.0961 451.088 93.6861 446.933 100.357C445.408 102.808 445.628 108.812 445.033 111.833C443.488 119.63 441.873 127.263 439.878 134.888C463.543 147.979 446.868 194.613 420.083 193.101C419.423 195.006 416.338 202.967 416.228 204.214C415.378 213.455 417.808 228.633 420.328 237.605C437.728 236.721 434.573 240.47 447.683 246.126C485.078 262.261 536.858 270.836 553.543 313.545C567.038 348.688 572.133 387.354 577.913 424.429C582.053 450.978 585.203 478.463 586.988 505.238C588.233 523.918 586.638 545.183 577.898 561.938C621.858 576.578 633.743 623.038 619.128 663.298C605.693 700.293 574.298 732.198 544.713 756.893L558.793 757.113C560.898 757.068 567.313 757.048 568.823 758.083C565.608 758.788 546.798 758.858 543.143 758.198C540.143 759.963 538.643 760.903 535.883 763.028C545.543 762.848 558.883 762.678 568.468 763.093L571.673 763.833L568.448 764.493C557.858 764.533 542.838 763.813 532.523 765.513C530.718 765.813 526.888 768.313 525.133 769.428C542.253 768.538 567.738 770.103 585.333 770.593C590.523 770.518 594.878 770.533 600.008 771.448C598.793 772.448 576.708 771.998 573.838 771.613L540.253 771.098C534.473 771.028 526.663 770.673 521.173 771.463C519.003 771.778 512.793 774.623 510.028 775.528C522.638 775.788 535.248 775.933 547.863 775.963C557.228 776.008 570.783 775.898 579.948 777.078C573.248 778.308 566.523 777.228 560.123 777.658C540.748 778.973 502.618 774.228 485.428 781.353C486.318 782.508 564.448 782.298 571.813 782.618C574.598 782.568 585.613 782.118 587.168 783.118L586.108 783.418C561.633 784.283 537.533 783.913 513.088 784.058C509.158 784.078 486.993 783.798 484.568 784.218C483.598 785.288 483.918 785.288 483.783 787.098C484.223 788.073 484.373 788.833 485.703 789.088C488.248 789.583 493.428 788.773 495.788 788.938C503.073 789.448 554.748 789.148 557.973 790.558C557.098 791.428 491.188 791.023 483.228 791.028L481.938 796.523C499.028 796.578 516.113 796.828 533.198 797.263C541.333 797.408 556.238 797.318 563.963 798.348C557.748 800.598 493.923 797.813 481.948 798.213L480.428 804.568C494.408 804.343 516.723 803.908 530.113 806.108L530.193 806.388C516.533 807.308 494.813 806.113 480.048 806.293L478.648 812.488C483.363 812.488 511.623 812.438 513.018 813.823C502.758 814.443 488.973 814.113 478.403 814.128C477.843 815.893 477.003 818.848 476.208 820.413L476.523 821.768C475.033 823.103 474.128 826.013 473.748 827.938C473.768 828.143 473.873 828.903 473.818 829.058C471.808 830.798 471.488 831.933 470.328 834.398L469.553 835.518C458.468 848.408 446.868 843.123 432.593 840.633C428.428 839.903 421.753 839.508 417.458 839.553L417.083 838.083C421.013 838.058 425.153 838.193 429.098 838.253C428.313 837.778 427.523 837.303 426.728 836.838C418.768 832.038 405.298 833.283 395.343 833.018L393.223 831.878C401.053 832.123 410.503 831.828 418.463 831.793L412.883 827.198C400.993 826.748 374.638 826.868 364.473 825.143C375.818 824.578 398.643 824.753 409.978 825.578L403.908 820.833C393.348 820.948 380.788 820.248 369.973 820.048C332.708 819.298 295.454 818.078 258.219 816.393C260.222 815.353 263.227 815.543 265.615 815.468C276.005 815.533 287.626 816.208 298.106 816.558L344.143 817.808C362.448 818.313 383.298 818.003 401.123 819.048C397.713 816.698 394.663 814.283 390.463 814.178C382.558 813.978 374.543 813.748 366.653 813.438C315.602 811.223 264.507 810.243 213.411 810.503C196.913 810.533 156.812 808.268 143.105 813.603L208.509 815.863C212.136 815.988 243.031 816.708 244.833 817.273L244.326 817.723C211.731 819.568 176.991 814.838 144.203 815.233C130.106 815.403 118.068 819.313 104.113 820.393C92.1192 821.318 83.2392 819.843 71.7312 816.788C70.6967 816.533 64.7577 816.028 63.2102 815.828C64.7932 815.343 68.0211 815.533 69.8121 815.548C67.8421 814.168 65.6037 812.803 63.5642 811.498L62.2077 810.373C60.4762 808.393 60.2532 807.903 57.9572 806.823L57.4197 805.518C56.0647 803.523 55.0257 801.708 53.2122 800.133L52.5552 798.848C51.6622 796.333 51.3667 795.598 50.0082 793.313L49.4002 791.883C49.3557 789.658 49.3622 788.173 47.8437 786.568L47.7827 785.158C47.7942 783.138 47.5737 782.103 47.2382 780.093L47.3087 779.033C47.2747 778.468 47.2507 777.908 47.2377 777.343C46.1802 741.123 73.2937 714.763 109 713.963C96.8527 708.403 84.5867 701.003 73.1992 693.963C70.7992 692.483 67.2362 689.258 65.4497 688.243C60.5227 685.568 55.2582 683.493 50.2342 680.978C20.1642 665.938 -2.40584 636.383 0.205658 601.543C1.73716 581.108 12.5396 559.953 30.4996 549.148C55.9561 533.828 90.5652 540.583 117.906 547.348C109.785 537.673 105.949 532.208 102.438 519.783C99.2637 508.543 101.086 502.443 100.48 492.508C99.5146 476.683 96.8442 467.408 105.683 452.458C100.403 440.651 105.044 438.26 105.406 427.162C105.682 418.677 100.9 408.962 106.57 400.406C109.488 396.004 114.019 393.765 118.929 392.823C118.471 368.491 136.56 365.08 156.279 367.805C155.696 367.725 164.121 369.286 161.37 369.25C169.635 369.36 178.115 369.747 186.528 370.192C198.162 338.474 214.908 294.548 246.645 279.396C267.469 269.454 289.462 261.819 311.108 253.785C291.338 240.771 279.933 225.526 273.489 202.629C258.872 199.503 250.345 188.255 246.235 174.353C243.087 163.707 243.967 148.651 257.223 145.821C253.258 138.822 249.536 130.433 246.925 122.867C244.467 115.746 246.253 119.81 242.504 117.204C240.602 112.808 242.975 107.557 242.203 102.829L240.105 102.926C237.907 100.947 236.482 97.1646 235.832 94.3036C232.512 79.6936 238.997 61.9106 251.646 53.6191C254.622 51.6681 257.65 48.7241 261.095 51.0716C261.219 51.3766 261.343 51.6816 261.467 51.9866C259.292 54.5061 255.598 55.9131 253.01 58.0221C241.532 67.3756 235.129 86.5086 242.726 100.063L243.092 100.702C243.356 99.6426 243.632 98.5866 243.922 97.5341C244.382 95.8931 244.622 94.8321 246.048 94.0376C247.381 96.1656 246.51 109.708 246.669 113.653L247.132 114.171C251.712 119.428 258.415 143.06 262.183 144.91L262.79 144.45C262.494 138.762 261.191 132.997 260.427 127.314C258.896 115.915 259.315 104.581 258.882 93.2191C258.79 90.8111 257.836 91.3456 259.292 88.7601L260.085 88.7766C261.143 89.9051 262.852 94.5096 264.301 97.0306C263.057 89.0446 262.03 83.9356 266.091 75.9966C266.943 74.3321 267.509 73.6151 269.1 73.1136C270.645 74.3411 268.909 77.5566 268.485 79.9116C267.834 83.5316 266.424 86.6481 267.03 90.5046C267.469 93.3046 269.722 98.6336 268.195 100.759C265.683 100.373 266.537 99.4296 263.899 98.7241C262.896 112.438 265.234 129.231 267.124 142.84C278.948 139.118 309.394 135.291 317.259 148.243C318.245 149.866 319.128 153.204 319.653 155.141C324.373 153.392 329.063 153.669 333.923 154.371C334.943 147.159 336.068 141.865 344.103 139.275C358.658 134.579 378.228 133.42 392.743 138.815C396.018 140.032 396.678 143.057 397.733 146.031C403.008 144.221 408.403 142.114 413.638 140.154C412.918 130.209 412.778 126.168 409.468 116.594C407.683 111.435 407.143 108.573 404.673 103.252C385.903 100.01 377.153 93.3836 364.068 80.3921C366.068 83.8186 370.343 88.4411 370.963 91.7836C369.658 95.5261 365.228 95.3031 361.848 95.2186C341.258 94.7031 328.098 78.8956 310.802 70.9636C305.359 68.4676 301.935 74.3611 297.945 73.9511L297.564 73.0661C297.802 72.1356 298.029 71.3956 298.773 70.6856C312.267 57.8091 329.488 79.6871 342.118 85.0556C352.903 89.6411 356.253 91.0401 367.418 90.8196C364.408 86.0201 352.043 67.0741 354.253 62.7956C356.678 62.7031 359.613 69.7826 361.343 71.8256C375.633 88.6846 396.068 102.187 418.293 98.1956C407.343 93.7986 400.113 87.1411 394.648 76.5091C393.473 74.2206 390.998 69.3461 391.793 67.0491L392.733 67.1256C396.483 70.7626 399.723 80.3601 404.478 84.6036C407.258 87.0846 408.878 88.5476 412.053 90.6631C414.808 92.5021 422.048 95.3511 423.558 97.5396C422.078 102.32 413.703 102.918 409.433 103.193C413.183 111.536 414.458 113.22 420.468 120.127C415.083 117.709 413.748 116.496 409.408 112.568C417.173 124.254 417.108 125.022 417.583 138.508C420.448 137.718 422.823 137.405 425.003 135.506C426.548 132.287 427.728 129.799 429.593 126.768C429.633 129.486 429.398 131.815 429.163 134.506C431.863 134.058 433.013 134.04 435.768 134.038L435.878 133.255C438.008 118.993 444.098 106.17 441.983 91.3751C441.718 89.4941 441.353 85.7921 441.398 84.0121C443.188 87.7586 443.883 89.4106 445.108 93.3606C445.418 83.8296 444.628 79.2171 440.883 70.4311C439.208 66.5141 430.538 56.8631 430.853 54.9826C433.783 54.5801 439.208 58.5416 442.253 60.2816C436.813 38.8786 414.608 24.1146 393.278 21.4636C389.398 20.9811 385.373 21.2761 381.463 21.4881C388.223 14.8056 389.748 13.3691 389.948 3.77213Z" fill="#080808"/>
</g>
<g id="hair" transform="translate(426.076 74.2764)">
<path id="Vector_2" d="M27.6455 0L29.1665 0.807007C30.48 4.34001 24.5625 10.147 23.847 13.421C22.8945 17.7815 24.028 25.944 24.24 30.5955C23.575 31.5295 22.0635 30.8515 20.4415 30.6435C10.928 29.4245 11.3225 28.256 3.1785 33.2475C1.2485 33.6705 2.14149 33.771 0.394989 33.044L0 32C1.2655 24.3075 12.941 25.3015 18.8915 25.695C21.0125 21.643 14.713 10.275 27.6455 0Z" fill="#080808"/>
<path id="Vector_3" transform="translate(43.335 30.6797)" d="M13.1221 0.118197C13.6941 0.0661974 14.2671 0.0302033 14.8411 0.0102033C21.1046 -0.188297 26.0636 2.5262 30.5581 6.6932C33.5291 9.4482 39.7791 16.4567 39.9241 20.5017L39.3391 20.9037C35.8691 19.6182 32.1041 14.0327 29.7061 10.9302C28.9901 10.2062 28.2511 9.5052 27.4901 8.8287C11.4081 -5.2473 3.96611 12.5572 0.191106 12.8107C-1.45389 6.2892 7.91661 1.3442 13.1221 0.118197Z" fill="#080808"/>
<path id="Vector_4" transform="translate(43.4795 42.8379)" d="M15.4161 0C17.2846 0.0025 19.2371 0.2585 20.2461 1.9795C16.4096 6.789 9.30411 0.682997 2.54161 14.228C2.12411 15.397 2.4546 14.872 1.5111 15.7785L0.590624 15.3115C-2.75988 7.37499 8.95209 1.123 15.4161 0Z" fill="#080808"/>
<path id="Vector_6" transform="translate(28.1865 51.4912)" d="M5.48838 0C6.73488 0.2775 6.68638 0.413996 7.62638 1.3345C7.74388 2.5725 3.74489 11.3335 2.76789 14.653L1.25388 14.632C-2.46562 11.2545 3.03888 2.875 5.48838 0Z" fill="#080808"/>
</g>
<g id="right-eyebrow" transform="translate(452.812 181.763)">
<path id="Vector_7" d="M17.9818 0.361705C22.9383 -0.338795 33.9892 -0.594786 35.9782 5.16271L35.2353 6.2517C31.5178 8.3417 20.0763 7.76571 13.3118 9.03721C8.44827 10.4222 6.63526 11.8327 2.12476 13.4712C0.459257 13.2207 1.15927 13.5982 0.0487686 12.1412C-0.906231 4.54222 12.4158 1.4032 17.9818 0.361705Z" fill="#080808"/>
</g>
<g id="left-eyebrow" transform="translate(527.242 177.37)">
<path id="Vector_8" d="M12.5124 0.32225C20.2674 -0.92225 36.5473 1.33424 41.3123 8.90524C41.7923 9.67224 41.4524 9.86325 41.1324 10.7083C37.5524 12.4503 34.7174 10.5842 30.3424 9.42824C24.8424 8.17774 22.3173 8.16875 16.7373 8.21175C12.7073 8.24275 4.47734 10.2078 1.30734 9.04025C-0.142661 7.64725 -0.487619 5.15124 0.787381 3.68274C3.17738 0.937239 9.14236 0.69325 12.5124 0.32225Z" fill="#080808"/>
</g>
<g id="face" transform="translate(456.258 196.545)">
<path id="Vector_9" d="M158.083 0C161.293 0.042 165.742 1.455 167.662 4.1655C176.632 16.8375 169.907 37.6965 158.372 46.678C154.932 49.3555 150.722 51.6635 146.247 50.9705C141.457 50.33 142.272 47.1215 140.027 44.0665C138.347 45.605 137.957 49.054 137.467 51.285C132.127 75.739 119.593 94.1165 98.6275 108.356C65.9175 130.577 33.492 117.79 12.805 86.47C5.47899 74.131 3.254 65.314 0 51.5495C17.205 57.3635 40.8525 55.393 44.2925 33.836C44.8075 30.6205 44.3875 24.3705 46.2925 22.0175C49.6475 20.438 51.2675 20.3745 54.9575 20.5245C60.5875 20.468 60.7975 26.3305 62.0875 30.7355C65.6525 42.931 73.8025 50.078 86.6875 50.555C117.167 51.6825 121.807 40.968 123.222 14.47C128.272 11.959 133.957 9.683 139.177 7.4705C139.162 10.5505 138.702 14.801 140.552 17.179C145.187 16.737 145.518 4.356 158.083 0Z" fill="white"/>
</g>
<g id="right-ear" transform="translate(430.61 208.498)">
<path id="Vector_10" d="M8.51441 0C9.12591 0.1385 9.26839 0.344996 9.84089 0.729996C8.54389 2.2245 4.30039 0.552995 4.96339 5.14799C5.89739 6.62699 7.89139 7.36251 9.54539 8.35001C9.99089 10.4715 10.3864 12.6035 10.7304 14.744C8.82292 13.35 6.89689 11.6945 4.48939 12.064C3.28239 13.259 3.75239 12.5415 3.36189 14.4695C4.61989 16.1135 4.95089 14.783 7.03089 15.6705C17.6929 20.2185 5.21041 30.1505 14.1344 35.107C14.8939 33.0875 13.2089 30.003 13.6794 27.1685C15.1264 29.203 16.0884 30.943 17.3069 33.097C18.4349 34.4515 19.8714 35.922 21.0859 37.2335C21.6164 41.3295 22.0264 44.0135 22.9714 48.013C11.2114 44.5515 4.5829 34.294 1.4419 23.0225C-0.776595 15.062 -1.73458 2.2585 8.51441 0Z" fill="white"/>
</g>
<g id="left-ear" transform="translate(602.163 185.23)">
<path id="Vector_11" transform="translate(4.24219)" d="M0 8.73801C1.545 5.51901 2.72497 3.031 4.58997 0C4.62997 2.718 4.39497 5.04701 4.15997 7.73801C2.77997 8.09601 1.39 8.42951 0 8.73801Z" fill="#262526"/>
<path id="Vector_12" transform="translate(0 21.6611)" d="M17.2323 0C18.6673 0.652 18.8773 0.605497 19.8323 1.8875L19.6723 2.74251C14.1273 4.19301 11.9523 7.467 8.21729 11.795C16.0073 16.8145 13.8823 27.3725 8.94227 27.5485C8.53727 25.0175 10.8123 23.029 10.3523 18.45C9.4673 16.9295 9.3573 16.5095 7.8523 15.5385C3.8373 16.399 4.88731 23.838 1.36731 24.2565L0.252264 23.2075C-0.0977364 21.8615 -0.137695 20.8425 0.482305 19.565C4.50231 11.3105 8.48231 3.5725 17.2323 0Z" fill="#080808"/>
</g>
<g id="glasses-frames" transform="translate(444.54 198.292)">
<path id="Vector_13" transform="translate(52.1504 23.0156)" d="M7.38458 0C13.7396 4.6775 2.56808 25.451 3.72958 31.8755C4.31958 35.143 11.4946 36.757 14.8446 38.718L14.9746 39.597L13.6596 40.6555C9.58457 40.4775 3.55955 39.198 1.29705 35.388C-2.47745 29.0355 3.03706 21.193 4.54956 14.83C5.71956 9.9025 6.16458 4.92 7.38458 0Z" fill="#080808"/>
<path id="Vector_14" transform="translate(75.4922)" d="M22.8325 0.411193C29.5225 -0.326307 46.1424 -0.452313 50.8124 3.35869C57.8924 9.13769 55.2775 30.7552 49.5225 37.2267C44.7975 42.5412 40.2575 43.4577 34.0925 44.1507C12.5975 45.9622 4.73246 41.2322 0.512456 19.4442C-2.72254 2.75518 9.91246 1.83319 22.8325 0.411193Z" fill="white"/>
<path id="Vector_15" transform="translate(0 4.02441)" d="M21.494 0.393151C27.821 -0.417849 41.179 -0.203357 46.4225 3.25414C55.0825 8.96514 53.0055 29.2312 47.748 36.7271C43.8245 42.3217 38.1825 43.2847 31.9735 44.1977C10.61 44.7332 5.16254 39.7061 0.783538 19.2411C-2.97446 1.67564 7.25152 1.69015 21.494 0.393151Z" fill="white"/>
<path id="Vector_16" transform="translate(2.11816 9.08984)" d="M2.11274 0C3.34524 1.3805 7.31374 27.7035 8.07524 31.737L7.30622 32.33C3.28522 27.008 0.677236 11.33 0.0257359 4.29799C-0.177264 2.10749 0.848741 1.3435 2.11274 0Z" fill="#080808"/>
</g>
<g id="right-eye" transform="translate(472.523 215.382)">
<path id="Vector_17" d="M4.00213 0C6.22713 0.43 7.52014 1.07849 8.85214 2.92149C10.8376 5.62149 11.5606 9.0475 10.8361 12.3195C10.2681 14.9475 9.42014 15.6145 7.26614 17.0605C-0.560361 15.6235 -2.69987 5.1295 4.00213 0Z" fill="#080808"/>
</g>
<g id="left-eye" transform="translate(538.675 212.369)">
<path id="Vector_18" d="M4.2702 0C5.9052 0.607 7.09521 0.919501 8.28021 2.2695C10.2802 4.587 11.2552 7.61549 10.9852 10.6645C10.6802 13.9695 9.86517 15.162 7.42517 17.1285C7.06017 17.0755 6.6952 17.0155 6.3302 16.949C-0.579798 15.647 -2.6498 4.4605 4.2702 0Z" fill="#080808"/>
</g>
<g id="nose" transform="translate(497.026 267.387)">
<path id="Vector_19" d="M43.1535 0C44.7535 0.4055 44.0785 0.0204819 45.2485 1.20648L45.0135 2.30148C35.8385 12.43 14.5435 15.235 1.80301 10.7425C0.763509 10.124 0.9025 10.1675 0 9.327L0.113525 8.435C2.49153 7.635 10.5635 10.7065 15.2235 10.351C26.4785 9.49248 34.5335 7.4165 43.1535 0Z" fill="#080808"/>
<path id="Vector_20" transform="translate(16.8232 18.8301)" d="M0 0C3.335 0.2395 4.27505 -0.257995 7.93005 0.561005C4.96005 0.857005 3.44004 1.07698 0.415039 0.777985L0 0Z" fill="white"/>
</g>
<g id="mouth" transform="translate(505.47 264.862)">
<path id="Vector_21" d="M87.2598 0C88.9848 9.8805 89.0749 37.532 97.7799 43.2235L98.4049 40.812C99.6099 40.517 103.92 43.3255 105.225 44.0965C93.7949 79.498 41.8699 109.791 9.42487 82.2885C5.02987 77.7755 1.51986 71.661 0.599859 65.3135C0.0748588 61.687 -1.08015 56.8535 2.52985 54.6355C6.84485 56.049 10.3949 74.763 14.0549 77.262L14.7648 76.9395C15.6748 74.601 14.2499 71.017 13.4799 68.6155L13.8148 68.106C32.0948 70.1665 45.9948 52.9595 57.6398 41.338C70.8748 28.126 79.4548 17.142 87.2598 0Z" fill="white"/>
</g>
<g id="torso" transform="translate(372.546 300.07)">
<path id="Vector_22" d="M231.544 0.00308573C242.444 -0.116414 245.449 3.24207 254.814 8.83957C247.049 59.4461 164.764 101.473 126.855 54.9516C117.812 43.8546 117.725 33.1006 119.649 19.8256L119.262 19.5086L118.139 20.2031C117.474 21.4246 117.273 22.1516 117.144 23.5071C115.813 36.1156 118.248 48.4056 126.927 58.0866C153.764 88.0241 201.989 79.0746 229.034 54.2496C241.689 42.6341 255.014 26.6426 256.269 9.07358C277.514 18.0941 299.144 24.3811 320.164 35.0321C344.319 47.2726 354.114 60.0446 362.554 85.8176C367.419 100.665 370.364 115.704 373.304 131.039C377.624 153.046 381.194 175.193 384.009 197.442C386.309 214.445 388.469 231.52 389.924 248.62C391.994 272.995 393.444 296.745 381.989 319.185C351.854 314.07 321.369 327.155 296.739 343.59C289.189 343.555 281.654 342.88 274.219 341.585C256.879 338.69 241.544 335.13 231.044 320.445C232.809 320.655 238.129 321.475 239.204 320.075C235.049 316.095 207.559 313.985 207.809 304.45C211.449 302.895 213.989 307.21 215.764 307.425C227.104 308.8 236.244 290.065 238.379 281.16C240.794 271.08 241.779 259.795 238.084 250.035C237.639 248.77 233.344 243.935 232.259 242.035L232.544 241.355C237.644 241.15 248.689 247.815 256.369 248.215L256.869 247.725C256.124 246.07 254.754 245.525 253.154 244.535C270.344 234.965 287.559 243.305 305.274 247.185C308.189 247.825 314.824 249.715 317.619 249.695L317.324 248.97C314.749 246.965 307.169 245.08 303.579 243.96C320.354 239.29 336.599 237.775 351.799 247.505C356.189 250.315 359.984 254.32 364.559 256.65C359.314 246.17 348.139 239.93 337.084 237.19C326.809 234.645 316.809 236.39 306.734 238.89C303.979 239.745 302.414 240.31 299.754 241.405C296.414 240.57 292.804 239.465 289.469 238.515C290.409 233.175 292.324 230.765 295.229 226.265C292.849 215.5 292.789 204.91 291.844 193.996C287.989 149.406 289.239 76.9156 335.679 54.1386C327.039 55.9416 320.439 60.4251 314.729 67.0511C290.884 94.7146 284.519 141.326 286.544 176.726C280.449 162.246 277.154 146.743 276.829 131.036C276.674 124.957 277.209 117.869 276.649 111.977L276.579 111.288C272.124 130.138 274.294 150.441 280.264 168.819C281.759 173.419 285.799 178.508 286.444 183.437C288.089 196.021 287.589 214.42 289.939 226.505C286.964 230.92 286.259 232.16 285.229 237.405C284.714 237.29 284.199 237.175 283.684 237.065C270.409 234.255 260.789 234.73 249.324 242.145C242.499 239.485 237.929 237.085 230.639 236.665C228.139 227.975 224.969 214.755 222.039 206.695C219.099 198.588 196.894 182.918 188.879 179.994C185.259 151.183 179.174 137.843 146.214 137.704C141.864 137.686 141.524 136.623 137.359 138.737L136.644 139.119C135.914 138.625 134.349 137.522 133.499 137.463C105.24 135.477 76.8585 134.129 48.616 131.943C46.122 116.269 42.4935 100.791 40.92 84.9301C40.478 80.4781 40.293 74.4701 39.357 70.2236C35.814 76.6521 42.859 122.532 44.691 131.661C30.1975 131.093 14.507 130 0 128.999C11.761 102.144 23.6835 63.6946 48.9645 46.9491C70.936 32.3956 100.374 26.1646 124.077 15.1091L124.902 14.7201C126.659 15.7201 128.954 16.7261 130.819 17.6046C129.689 21.2441 129.104 23.2566 129.094 27.2301C129.079 35.6286 132.459 43.6756 138.474 49.5376C168.024 78.8656 223.384 52.1321 238.164 19.8026C240.064 15.6391 242.384 11.5506 242.284 6.80759C242.169 1.51209 238.404 4.38708 235.134 2.83808C234.259 2.40658 232.324 0.668086 231.544 0.00308573Z" fill="white"/>
<path id="Vector_23" transform="translate(62.0078 247.785)" d="M4.24612 0C25.4496 1.595 48.0911 4.27 69.4466 6.31C74.5516 26.22 104.222 28.885 115.887 43.635C120.897 49.97 132.192 54.195 140.012 55.81C145.777 67.51 152.062 69.42 163.892 72.475C164.952 74.605 166.182 76.64 167.577 78.565C178.882 94.035 205.402 97.305 222.902 99.915C213.407 102.915 201.152 108.185 191.047 111.665C178.772 116.085 171.137 119.125 158.442 121.24C110.547 129.2 65.8816 121.315 22.5226 99.94C19.1036 98.25 5.18111 93.65 3.78161 92.635C3.50861 87.7 2.95061 88.565 1.35861 84.36C-3.16839 72.415 4.64463 58.86 9.76913 47.88C10.2581 49.9 10.6606 52.045 12.3551 53.33C13.4731 50.84 5.20612 7.4 4.24612 0Z" fill="white"/>
<path id="Vector_24" transform="translate(103.847 317.399)" d="M0 0C4.6165 1.315 10.9775 5.36005 15.8025 7.18005C39.7025 16.2151 65.5025 20.935 91.0775 19.79C92.9375 19.71 96.3375 19.355 97.7475 20.335C93.0775 21.11 85.6775 21.485 80.8825 21.6C57.8075 22.085 34.9125 17.475 13.827 8.09003C9.73503 6.23003 3.223 3.075 0 0Z" fill="#080808"/>
<path id="Vector_25" transform="translate(31.8428 260.229)" d="M0.178961 0L1.03748 0.970032C1.57848 4.08003 1.13948 7.12002 0.869483 10.275C-0.440517 8.16002 0.0954614 2.69 0.178961 0Z" fill="#484847"/>
</g>
<g id="game-console" transform="translate(303.958 429.911)">
<path id="Vector_26" transform="translate(36.3154 3.9375)" d="M42.1355 0C46.2695 0.2765 53.588 0.401996 57.2925 1.0835C73.258 1.463 91.876 3.21801 108.094 4.29001C112.893 4.57601 117.925 4.79752 122.694 5.24152L144.984 6.556C147.4 6.7055 154.356 6.99099 156.427 7.38199C159.095 7.67699 163.526 7.6895 166.336 7.7785C164.291 10.5375 163.811 11.117 162.526 14.3575C161.301 14.11 160.516 13.9605 159.25 13.866C140.124 12.444 120.882 11.6255 101.772 10.166L66.43 7.73401C63.0045 7.49551 44.4945 5.73451 42.992 7.00101C44.4245 8.10801 114.799 12.5175 123.328 13.088L148.22 14.734C152.078 14.985 158.583 15.587 162.172 15.331C164.832 35.167 167.762 54.964 170.977 74.716C168.667 74.651 166.357 74.631 164.047 74.666C149.802 75.006 142.277 84.241 154.97 94.996C154.44 95.666 153.961 96.371 153.536 97.111C148.06 106.611 159.821 112.311 166.596 115.721C158.603 115.821 147.348 114.346 139.161 113.516L101.495 109.761C100.933 106.131 100.189 99.821 95.3975 99.366C91.8205 100.621 93.193 106.021 93.6005 108.821C77.6095 108.381 60.2575 105.151 44.1985 104.181C38.754 103.851 32.1635 103.256 26.893 102.311C25.1025 100.431 24.343 91.316 26.1425 89.091C31.716 82.206 25.7655 79.626 22.7245 74.941C27.573 64.255 20.63 58.9815 10.562 57.064C8.30551 40.4935 2.5155 21.6805 0 4.39999C2.5895 4.79449 6.46601 5.619 8.71851 4.452L9.08551 5.31699L9.366 5.32599C13.8975 8.21449 31.3915 8.58649 37.352 8.03949C39.393 7.85199 41.425 1.885 42.1355 0Z" fill="white"/>
<path id="Vector_27" transform="translate(93.6084 5.02148)" d="M0 0C15.9655 0.3795 34.5835 2.13451 50.801 3.20651L50.195 4.50702L49.48 4.48752C49.144 5.26852 48.819 5.83501 48.4175 6.58301C46.84 7.28701 4.32448 4.669 0.652985 3.8385L0.231995 2.75351C1.26099 1.29851 0.603992 1.8365 2.33499 1.1615C1.41749 0.772999 0.878 0.4695 0 0Z" fill="#080808"/>
<path id="Vector_28" transform="translate(93.6084 5.02148)" d="M0 0C15.9655 0.3795 34.5835 2.13451 50.801 3.20651L50.195 4.50702L49.48 4.48752C46.449 3.95452 40.5925 3.905 37.3105 3.608C26.418 2.622 13.0455 2.7475 2.33499 1.1615C1.41749 0.772999 0.878 0.4695 0 0Z" fill="white"/>
<path id="Vector_29" transform="translate(156.895 9.17969)" d="M2.1145 0L24.405 1.31448C26.821 1.46398 33.7765 1.74947 35.848 2.14047L35.7295 3.44699C34.2775 6.52799 33.475 6.93649 29.6725 6.40399C24.939 5.74149 2.4685 5.99047 0 3.34497C0.1785 1.71797 -0.119515 2.49399 1.35349 1.13699L2.1145 0Z" fill="#080808"/>
<path id="Vector_30" transform="translate(158.248 9.17969)" d="M0.761017 0L23.0515 1.31448C25.4675 1.46398 32.423 1.74947 34.4945 2.14047L34.376 3.44699C25.3815 2.17199 9.4955 1.69299 0 1.13699L0.761017 0Z" fill="white"/>
<path id="Vector_31" transform="translate(108.011 39.0254)" d="M4.15245 0.00693088C7.68545 -0.0515691 10.3355 0.268945 13.8445 0.640445C14.7485 7.79695 18.8484 25.8239 18.6434 31.5489C17.2199 32.3589 16.8755 32.0439 14.981 32.0489C10.6215 31.5389 6.57796 30.7589 4.12996 26.4829C0.887461 20.8194 -0.584531 10.9504 0.212969 4.43393C0.482969 2.22943 2.50145 0.996431 4.15245 0.00693088Z" fill="#080808"/>
<path id="Vector_32" transform="translate(110.858 41.8818)" d="M1.97118 0.162651C2.45618 0.129151 2.94169 0.0996382 3.42769 0.0746382C5.07269 -0.00786184 7.19417 -0.232843 8.45067 0.900657C9.38867 3.74516 12.8507 23.9577 12.3877 25.7837L11.5062 26.0087C3.53468 25.0357 2.44118 23.2866 1.31868 15.2126C0.629683 10.2566 -1.59382 4.00565 1.97118 0.162651Z" fill="white"/>
<path id="Vector_33" transform="translate(113.391 45.791)" d="M1.11715 0C3.38115 0.2075 4.17115 0.7965 5.28515 2.6875C5.51415 4.63 5.20263 4.88198 4.21963 6.55548C2.33663 6.11848 1.04513 5.49997 0.0531254 3.80197C-0.0668746 1.50597 -0.0828487 2.2855 1.11715 0Z" fill="#080808"/>
<path id="Vector_34" transform="translate(124.769 39.6631)" d="M0 0C15.2965 1.2525 14.375 5.75601 16.927 20.415C17.632 24.4665 17.975 27.6115 15.3505 30.966C11.471 32.741 9.19602 32.231 5.00552 31.871C3.78152 21.8185 0.6695 9.6985 0 0Z" fill="#080808"/>
<path id="Vector_35" transform="translate(130.989 54.7314)" d="M1.77298 0.261564C3.20198 -0.377436 4.88199 0.191045 5.62949 1.56704C6.37649 2.94254 5.93899 4.66105 4.62549 5.51205C3.68049 6.12405 2.4725 6.15505 1.4975 5.59155C0.522499 5.02855 -0.0540008 3.96656 0.00399919 2.84256C0.0619992 1.71806 0.745481 0.721564 1.77298 0.261564Z" fill="white"/>
<path id="Vector_36" transform="translate(116.66 73.8584)" d="M2.1315 6.66501C0.9485 6.28001 0.975 6.33502 0 5.58002L0.609009 3.53L1.04599 3.57001C2.02049 4.41001 2.46001 4.89501 3.61551 5.45001L4.09399 4.98502C3.58599 3.22502 3.33651 2.05501 4.08701 0.390015C5.35601 1.77501 6.1925 3.15 8.09 3.09C9.6335 1.44 10.2115 0.455 12.401 0L13.1745 0.705017L14.5 2.19L15.467 1.60501C18.28 4.44501 16.496 5.13001 21.594 6.60501C21.7705 6.46501 22.5305 5.85001 22.703 5.79001C23.566 3.48501 23.023 3.93501 24.7315 2.67001C26.3935 2.51501 25.6 2.36001 27.1355 3.39001C28.042 5.10501 27.904 5.18001 27.816 7.07001L29.501 6.255C29.743 7.095 30.4335 7.73002 31.2895 7.90002C32.538 8.43502 33.003 8.51 33.9635 9.47C35.2695 10.72 36.4135 15.325 35.1205 16.88L34.428 16.65L33.497 14.045L32.606 13.725C31.0685 14.45 30.7315 15.185 29.7335 16.56C28.3585 14.835 29.3305 14.12 28.4245 12.855C27.8515 14.18 28.3195 13.69 26.88 14.27L27.077 15.03L26.283 15.93C21.26 16.91 20.2025 13.36 20.3765 9.39999L19.4085 8.94504C15.229 12.515 18.485 11.995 16.299 14.715C15.724 13.32 15.338 12.05 14.883 10.62C13.495 9.93003 13.093 9.62998 11.849 8.76498L10.992 8.98001L10.29 8.095H9.37601L7.13501 7.57001L6.3255 7.63501C5.764 8.60501 5.59701 8.96002 5.21951 9.98502L4.88599 10.905L4.28751 10.485L5.03601 10.68L4.0925 10.135C3.4435 8.45004 3.256 8.07001 2.1315 6.66501Z" fill="white"/>
<path id="Vector_37" transform="translate(145.071 83.3291)" d="M0.0136361 3.38501C-0.020364 2.11501 0.00112556 1.80498 0.171626 0.544983L0.721125 0.155029C2.06963 1.71503 2.25763 2.48502 3.89813 3.02002C5.33663 1.92002 4.90464 2.13 5.55264 0C6.85864 1.25 8.00265 5.85503 6.70965 7.41003L6.01715 7.17999L5.08615 4.57501L4.19512 4.255C2.65762 4.98 2.32063 5.71503 1.32263 7.09003C-0.0523735 5.36503 0.919636 4.65001 0.0136361 3.38501Z" fill="#080808"/>
<path id="Vector_38" transform="translate(137.02 82.6143)" d="M0.0175729 0.644447C3.40507 -0.105553 3.44307 -0.630522 5.99957 1.61448C3.87407 2.41948 2.51507 2.17448 1.23657 3.42448C2.00307 4.99448 1.91759 4.58948 3.55609 5.73948C5.06259 5.82448 5.09008 5.89944 6.52108 5.51444L6.71807 6.27445L5.92407 7.17448C0.901067 8.15448 -0.156427 4.60445 0.0175729 0.644447Z" fill="#080808"/>
<path id="Vector_39" transform="translate(127.523 74.5635)" d="M2.31201 0L3.63751 1.48499C3.99501 4.07999 4.5605 4.15499 3.505 5.89999L2.32001 6.17499C0.313507 5.20999 0.191 4.26 0 2.285C0.925 0.305004 0.230012 1.085 2.31201 0Z" fill="#262526"/>
<path id="Vector_40" transform="translate(139.363 76.417)" d="M0 3.23211C0.863 0.927111 0.320003 1.37712 2.0285 0.112116C3.6905 -0.0428842 2.897 -0.197883 4.4325 0.832117C5.339 2.54712 5.20101 2.62211 5.11301 4.51211C2.33151 5.25211 2.057 4.70211 0 3.23211Z" fill="#080808"/>
<path id="Vector_41" transform="translate(128.51 82.3379)" d="M0 0.285832C2.639 -0.269168 4.88201 0.0908858 7.55951 0.465886C3.38001 4.03589 6.63601 3.51584 4.45001 6.23584C3.87501 4.84084 3.489 3.57087 3.034 2.14087C1.646 1.45087 1.244 1.15083 0 0.285832Z" fill="#080808"/>
<path id="Vector_42" transform="translate(139.92 106.074)" d="M0 0C10.492 0.61 21.029 2.00499 31.527 2.67999C34.231 2.85499 36.911 3.05503 39.5585 3.65503C40.9405 5.36503 40.5095 5.10999 40.8405 7.67999C36.039 7.57499 4.03501 4.76501 0.721008 3.51001C-0.242492 1.98001 0.0835 2.105 0 0Z" fill="#080808"/>
<path id="Vector_43" transform="translate(146.018 108.568)" d="M0 0.160176C3.5 -0.214824 14.0535 -0.0348407 16.9705 1.83016C14.327 2.74516 2.9605 0.960176 0 0.160176Z" fill="#626361"/>
<path id="Vector_44" transform="translate(85.5801 100.944)" d="M0 0C6.885 0.055 15.907 1.30501 22.9165 1.82501C26.842 2.12001 36.214 2.83001 39.5535 3.69501C40.7365 5.15001 40.365 5.05003 40.6225 7.28003C34.9875 7.14503 5.111 4.80501 1.155 3.51001C-0.0675012 1.89001 0.312 2.29 0 0Z" fill="#080808"/>
<path id="Vector_45" transform="translate(114.087 80.5234)" d="M3.70901 8.73999C2.46201 6.31499 0.575 3.09 0 0.529999L0.428009 0.119995C1.63451 0.779995 1.93101 2.50999 3.09451 4.23499C3.60951 2.81499 4.14701 1.405 4.70551 0C5.83001 1.405 6.0175 1.78503 6.6665 3.47003L7.61002 4.01501L6.86151 3.82001L7.45999 4.23999L7.79352 3.32001C8.17102 2.29501 8.33801 1.94 8.89951 0.970001L9.70901 0.904999C10.032 2.77 9.755 6.62999 8.09 7.79999C7.356 7.06499 7.17552 6.81003 6.61252 5.96503L6.0715 5.14502L5.15952 5.04498C4.24152 6.34998 4.12351 7.20999 3.70901 8.73999Z" fill="#080808"/>
<path id="Vector_46" transform="translate(106.862 79.9736)" d="M0.608425 0C2.45043 0.11 3.94595 -0.100002 5.29745 1.06C5.00195 2.58 3.65295 0.964961 2.22995 2.20996C3.78195 3.64496 5.24943 3.32997 6.71643 5.03497C6.61793 6.99497 6.85845 6.03501 5.56945 7.88501C3.95745 7.72501 1.75745 7.505 0.626949 6.315C2.33045 6.09 3.22993 6.06001 4.84143 5.39001C3.52243 3.84501 2.82992 4.61502 0.407925 3.20502C-0.204075 1.24502 -0.119575 2.275 0.608425 0Z" fill="#080808"/>
<path id="Vector_47" transform="translate(146.069 77.1357)" d="M0.0917681 2.97765C-0.198232 1.97765 0.215262 0.902655 1.10376 0.352655C1.99226 -0.202345 3.13875 -0.0923356 3.90875 0.612664C4.67875 1.32266 4.88475 2.45266 4.41275 3.38766C3.94075 4.31766 2.90575 4.82267 1.88025 4.62267C1.02425 4.45267 0.333768 3.81765 0.0917681 2.97765Z" fill="#080808"/>
<path id="Vector_48" transform="translate(105.473 73.2441)" d="M0 0C2.2205 0.515 2.29299 2.275 4.10699 2.5C4.32849 1.18 4.10451 1.55001 4.77151 0.515015C5.57601 1.96001 5.39999 2.89001 5.53049 4.67001C4.82099 5.18501 5.26701 4.98501 4.11301 5.04001C3.20201 3.98001 3.1605 3.635 1.8685 3.31L1.44299 4.935L0.962006 5.03C0.123006 3.775 0.1395 1.61 0 0Z" fill="#080808"/>
<path id="Vector_49" transform="translate(126.036 81.9541)" d="M0 0H0.914001L1.616 0.88501C2.0535 3.03001 2.42399 3.95004 2.01349 6.04004L1.48801 6.33002C0.0160066 4.44002 0.1105 2.385 0 0Z" fill="#080808"/>
<path id="Vector_50" transform="translate(114.126 74.0234)" d="M0.110515 0C1.39851 1.19 1.26051 3.63999 1.34101 5.36499L0.515025 4.92499C-0.243975 3.36499 0.0400147 1.79 0.110515 0Z" fill="white"/>
<path id="Vector_51" transform="translate(6.94336 30.5928)" d="M29.893 0C32.0525 9.457 34.487 20.1945 36.02 29.754C21.5185 27.9095 17.949 27.1645 3.45502 28.0105C1.73952 23.004 0.92 20.1785 0 14.965L7.32251 13.3415C12.151 21.5205 22.312 21.2045 25.086 12.565C24.556 10.9825 24.4315 10.8575 23.5955 9.48199C25.219 6.31699 27.6305 6.5785 28.865 1.724L29.893 0Z" fill="white"/>
<path id="Vector_52" transform="translate(0.869141 0.335938)" d="M28.8485 0C31.395 0.1305 33.428 0.425515 35.938 0.771515C33.724 3.65201 33.166 4.55401 31.529 7.80051C32.2615 13.1805 33.8755 20.38 34.956 25.841L34.143 26.3695C33.8335 25.8955 33.516 25.4265 33.1905 24.963C25.49 14.0985 3.107 22.954 0 18.4255C0.1175 15.691 2.84001 12.438 4.73801 10.6295C9.93251 5.67802 17.632 6.70801 24.3035 7.03201C25.8115 4.95051 27.4465 2.2095 28.8485 0Z" fill="white"/>
<path id="Vector_53" transform="translate(24.7305 12.9033)" d="M1.53101 0C3.42851 0.4425 5.556 1.02249 6.4935 2.86749C6.405 4.84799 6.48798 4.17898 4.88498 6.03598C2.43048 6.02698 1.219 5.84348 0 3.66998C0.1315 1.48798 0.158006 2.089 1.53101 0Z" fill="#080808"/>
<path id="Vector_54" transform="translate(48.248 2.25098)" d="M2.70148 0C11.2355 0.6115 19.7795 1.08149 28.329 1.41049C27.367 3.95099 26.925 5.09549 25.5835 7.43549C19.757 6.70799 4.36199 6.389 0.359985 5.2995L0 4.4115C0.702 2.2085 1.18698 1.8465 2.70148 0Z" fill="white"/>
<path id="Vector_55" d="M15.2895 0.206849C19.445 -0.159151 23.6885 0.0503496 27.865 0.15735L24.2295 5.60434C17.9445 4.91634 13.741 4.85433 7.74799 6.93283C4.04799 9.29633 2.547 11.9749 0 15.5479C3.2135 6.49135 6.12649 3.29435 15.2895 0.206849Z" fill="white"/>
<path id="Vector_56" transform="translate(223.673 72.584)" d="M3.97458 3.63139e-05C8.86958 -0.0149637 14.6246 4.62003 10.8946 8.30503L9.31461 8.12003C5.35961 7.90503 3.49461 8.28003 0.374608 5.93003C-0.980392 2.84003 1.59958 1.46004 3.97458 3.63139e-05Z" fill="white"/>
<path id="Vector_57" transform="translate(36.8584 1.60352)" d="M4.53049 0C6.98299 0.1945 9.57299 0.445995 12.0185 0.557495C9.54349 3.6005 9.24199 3.88647 8.82349 7.65997L8.543 7.65097L8.17599 6.78598C5.42849 5.73148 2.9565 5.9025 0 5.8815C1.6555 3.41 2.42749 2.193 4.53049 0Z" fill="white"/>
<path id="Vector_58" transform="translate(17.9229 41.6963)" d="M7.26498 0C7.68448 0.0185 8.01849 0.262501 8.45499 0.476501C9.93149 4.713 5.85198 6.0605 2.41498 5.7605C0.818978 4.2845 0.295 4.05649 0 2.24899C1.226 0.771993 5.10898 0.419 7.26498 0Z" fill="white"/>
<path id="Vector_59" transform="translate(130.579 105.244)" d="M0.324818 0C1.89532 0.105 2.0938 0.00998044 3.5233 0.72998C5.2078 2.64998 5.23481 5.81496 5.56081 8.45496C0.167311 7.69996 -0.577682 5.37 0.324818 0Z" fill="white"/>
<path id="Vector_60" transform="translate(35.0117 26.1777)" d="M0.812988 0L1.82449 4.4155L0.796509 6.1395C0.665509 3.9205 0.4255 2.732 0 0.528503L0.812988 0Z" fill="#A0A0A4"/>
</g>
<g id="right-arm" transform="translate(285.426 453.621)">
<path id="Vector_61" transform="translate(0 61.9238)" d="M2.68244 3.54504C3.32994 1.39004 2.98944 1.27 4.39594 0C5.95744 1.06 6.11043 2.76999 6.37393 4.55499C5.42243 8.90499 7.59544 13.18 9.64044 16.785C8.38144 35.645 21.2804 54.065 40.5054 56.475C48.6124 57.53 56.7979 55.23 63.1704 50.11C71.5459 43.435 75.0514 35.215 76.1619 24.855C78.7364 24.92 81.3719 25.16 83.9454 25.355C87.2224 34.86 89.8974 43.135 90.9239 53.195C91.3429 57.305 90.6834 62.825 91.5279 66.595L92.1239 66.71C97.6464 58.01 91.6669 34.94 88.2029 25.85C102.095 26.615 120.735 28.895 134.776 30.4C129.609 41.13 124.499 50.69 118.065 60.705C117.499 61.585 116.35 66.58 115.812 68.09C110.652 82.525 99.8274 95.57 86.3974 103.025C73.8524 110.15 55.4109 104.105 42.1904 100.66C25.8814 96.155 15.2789 88.16 7.42642 73.28C-0.393576 58.46 1.91343 51.255 1.39093 36.24C0.887432 21.775 -2.11856 18.365 2.68244 3.54504Z" fill="white"/>
<path id="Vector_62" transform="translate(2.68262 61.9238)" d="M0 3.54504C0.6475 1.39004 0.307001 1.27 1.7135 0C3.275 1.06 3.428 2.76999 3.6915 4.55499C1.8085 4.68499 1.1615 4.93004 0 3.54504Z" fill="white"/>
<path id="Vector_63" transform="translate(3.65723)" d="M25.53 0.0867092C29.4995 -0.104291 43.088 -0.274765 45.2875 3.01273C55.976 18.9852 14.3875 14.6992 14.082 22.0562C16.242 23.2357 16.28 21.9597 18.359 22.8392C18.5885 27.8552 19.4995 29.9317 20.997 34.7722C18.468 35.0382 15.859 34.2727 14.7745 36.9577C18.487 41.5282 67.491 34.9432 71.1135 47.5992C74.0795 57.9542 53.9005 56.6292 48.8475 56.8842C42.197 57.1842 35.555 57.6542 28.928 58.2942C26.6115 58.5092 20.6401 58.4892 19.6181 60.4692C22.0076 63.4792 32.101 61.7292 35.9425 61.4692C47.397 60.6892 58.859 60.1192 70.1805 58.1892C74.552 57.4392 76.7096 62.7292 74.3576 66.3592C71.4901 70.7842 67.7191 71.4942 63.0321 72.9042C57.4106 74.4992 32.03 78.9192 29.964 80.1092L29.7985 80.8642C36.237 86.4692 69.3375 73.0542 72.2835 73.9892C73.002 75.4042 72.7506 79.2492 73.1596 81.4492C70.1526 82.2592 63.3196 82.4592 58.9251 83.2792C58.1796 86.7142 57.6445 89.9192 55.5655 92.8342C52.6405 96.9392 48.2541 99.3592 43.2926 100.054C36.9056 100.944 30.7025 99.0142 25.5955 95.1692C22.801 93.0642 8.85955 75.8642 7.84205 73.0492C6.49505 69.3242 7.22805 64.9392 5.63105 61.3442C3.58505 56.7392 0.443537 54.1592 0.0470374 48.7592C-0.324463 43.7017 1.61255 38.9387 2.07005 33.9532C2.40905 30.2572 1.57104 26.2487 1.11204 22.5817C0.47104 17.4607 -0.155447 10.5152 3.39405 6.26923C7.98605 0.776235 18.9565 0.607209 25.53 0.0867092Z" fill="white"/>
<path id="Vector_64" transform="translate(84.54 92.749)" d="M54.997 0C57.787 0.21 61.313 0.755 64.153 1.125C65.47 13.9 69.1195 31.955 71.431 44.87C67.5975 53.14 63.226 61.505 60.8935 70.34C58.5275 79.305 60.5395 85.025 64.081 93.12C61.3155 93.015 52.5175 93.955 51.6755 93.66C44.421 91.1 37.155 88.54 29.74 86.355C19.88 83.41 9.9645 80.645 0 78.075C14.159 72.29 26.4855 58.975 32.765 45.195C34.525 41.33 37.24 32.9 38.9315 29.98C44.961 19.57 49.967 10.965 54.997 0Z" fill="white"/>
<path id="Vector_65" transform="translate(10.5791 80.2285)" d="M0 0C3.9985 2.99 9.81002 13.875 15.386 18.02C22.8275 23.555 27.8445 24.735 36.8515 24C49.637 22.96 51.6635 15.42 58.9035 6.47504C60.1305 5.87504 60.3185 6.11 61.728 6.375L62.3865 7.40503C62.543 10.04 61.451 12.905 60.69 15.515C47.3195 50.255 4.0385 37.74 0 0Z" fill="white"/>
</g>
<g id="left-arm" transform="translate(493.088 441.466)">
<path id="Vector_66" transform="translate(121.372 109.914)" d="M17.54 0C20.365 1.285 22.71 5.62 23.68 8.44C30.68 28.725 23.27 60.345 1.19995 68.41C0.784951 68.4 0.425 68.24 0 68.105C0.66 66.855 5.18997 64.63 6.78497 63.375C19.31 53.52 24.61 36.615 23.905 21.12C23.545 13.24 20.94 7.025 17.54 0Z" fill="#080808"/>
<path id="Vector_67" transform="translate(177.657 53.9824)" d="M30.09 0L30.475 0.598511C27.275 8.24651 7.69001 26.6865 0.320007 30.5765L0 30.0315C0.535 27.8065 10.235 20.2165 12.49 18.1865C18.775 12.5415 24.655 6.4665 30.09 0Z" fill="#080808"/>
<path id="Vector_68" transform="translate(0 39.1768)" d="M32.8873 0.0822473C42.0073 -0.362753 62.7074 0.955255 70.6174 5.08325C77.1774 9.52425 92.7724 19.3978 96.4824 25.7428C101.662 34.5828 106.197 67.8977 111.872 73.7727L112.472 73.5227L112.932 70.1577C115.392 73.1827 115.862 80.9628 115.742 84.8078C115.252 100.048 111.402 110.858 100.577 121.418C87.6523 118.318 75.9074 120.353 64.4874 111.318C59.8974 108.018 56.2123 102.123 51.2573 99.4478C40.1523 93.4628 27.8523 89.2478 18.9473 79.8828C16.9573 77.7878 13.6224 72.6477 16.0174 70.0177C17.1374 69.9327 28.0423 74.4778 30.0073 75.1278C39.7873 78.2578 49.6624 81.0777 59.6174 83.5877L60.7224 82.7777L60.1924 83.6828L60.9124 82.9328C58.5574 79.8278 55.9524 79.4078 52.2874 78.2978C37.3574 73.5578 21.8724 69.5278 8.38736 61.4878C2.07736 57.7278 1.72184 49.6128 8.71734 50.1178C16.3173 50.6678 62.5974 63.2978 66.3724 60.6328L66.2274 59.8878C58.3224 53.4578 14.8874 50.4028 4.03937 44.2278C-3.30663 40.7278 0.336364 32.4828 7.23736 32.0978C19.1874 31.3778 31.4324 32.9678 43.2974 34.0378C49.3024 34.5778 72.1373 40.1978 75.7623 36.0028L75.3923 35.2878C73.3123 35.2178 73.2723 35.2677 71.3273 34.6477L71.0173 33.8178L71.6824 33.2578L74.3973 34.0277L74.7974 33.5777C74.3674 31.5177 70.8723 28.7478 69.1523 27.3728C66.9823 25.6278 62.6074 21.5328 60.2224 20.6178C49.7874 16.5918 37.4073 17.1298 27.0973 12.5673C23.0173 10.7633 20.4924 6.53427 23.6224 2.55277C25.5824 0.0627673 29.9923 0.263247 32.8873 0.0822473Z" fill="white"/>
<path id="Vector_69" transform="translate(13.2871)" d="M5.23001 0C7.10001 0.1375 8.36998 0.0389856 9.97498 0.991486C10.43 2.73749 9.455 3.47848 8.38 5.61548C9.175 9.96598 16.37 8.23149 20.13 8.98999C36.535 12.301 40.8 21.817 42.855 36.4985C34.715 36.2165 36.14 30.8365 28.67 32.3915L26.505 35.4045C25.06 35.431 19.005 35.671 18.155 34.964C15.985 33.156 14.625 30.681 11.325 30.444C9.27501 31.1055 7.45 33.945 7.81 36.074C8.355 39.276 6.62499 41.0765 5.01999 43.5745C4.09999 32.507 1.42 18.984 0 7.56497C1.745 4.16347 2.72001 2.7415 5.23001 0Z" fill="white"/>
<path id="Vector_70" transform="translate(29.3652 21.9766)" d="M3.48153 0C10.1965 0.2315 13.9465 5.14651 8.04153 10.342C0.88653 9.78851 -3.40847 5.697 3.48153 0Z" fill="#080808"/>
<path id="Vector_71" transform="translate(32.2217 23.6797)" d="M1.09561 0C3.36061 0.476 4.2806 0.82899 5.2706 3.10199C5.2106 5.48499 5.33056 4.63649 4.03556 6.85999C-0.784444 6.24199 -0.619386 3.61 1.09561 0Z" fill="white"/>
<path id="Vector_72" transform="translate(17.2422 12.7402)" d="M2.63998 0C5.27498 1.1095 6.90999 3.28652 6.64999 6.13452C5.38499 7.57102 5.36003 7.67202 4.62503 9.49402L4.44504 9.944C2.73004 8.095 1.995 7.15251 0 5.25351L0.130005 4.33701C1.935 2.62701 2.19998 2.4385 2.63998 0Z" fill="#080808"/>
<path id="Vector_73" transform="translate(15.5566 7.01074)" d="M0 0.258443C2.375 -0.160557 3.87 -0.127546 6.03 0.787954C3.45 1.19345 2.26 1.35394 0 0.258443Z" fill="#484847"/>
<path id="Vector_74" transform="translate(24.3467 0.584961)" d="M2.41998 0C11.945 0.6715 21.165 0.881998 28.77 7.517C31.38 9.7955 35.4 14.883 35.705 18.4545C35.23 20.273 34.055 20.9355 32.58 22.186C30.235 21.7105 23.805 11.559 18.67 8.961C14 6.5985 1.665 6.50149 0 3.80649C0.23 2.10299 1.23998 1.3195 2.41998 0Z" fill="white"/>
<path id="Vector_75" transform="translate(19.5918 50.8633)" d="M0 0C6.01 5.3485 9.795 6.13449 17.5 7.73599C15.205 9.63099 14.305 10.211 12.795 12.876L13.075 17.261C9.53001 16.836 5.64499 16.681 2.04999 16.471C1.77499 11.471 0.705 5.0615 0 0Z" fill="white"/>
<path id="Vector_76" transform="translate(46.1719 60.3594)" d="M0 0C4.32 0.64 8.69002 1.71998 12.955 2.69498L13.975 11.455C12.195 11.23 10.415 10.99 8.64001 10.74C0.435015 9.55999 5.82501 7.70498 0.390015 0.509979L0 0Z" fill="white"/>
<path id="Vector_77" transform="translate(56.2227 20.9902)" d="M4.56462 0C5.59462 1.671 7.3596 13.7945 7.4246 16.1705C5.7196 16.5575 4.97959 16.215 3.16459 15.9265L2.34959 15.874C0.849592 14.316 -0.685371 5.32848 0.324629 3.07248C2.39963 2.09998 2.94962 1.635 4.56462 0Z" fill="white"/>
<path id="Vector_78" transform="translate(61.0674 65.334)" d="M0 0C3.56 2.015 5.11998 3.465 6.16998 7.255L0.954956 6.755L0 0Z" fill="white"/>
<path id="Vector_79" transform="translate(23.4238 32.8506)" d="M0.638655 0C2.57866 0.0975 4.80862 0.285478 5.35362 2.46448L4.24864 2.65698C2.19864 3.62048 1.99861 4.11699 0.218612 3.70099C-0.296388 2.35349 0.203655 1.4285 0.638655 0Z" fill="white"/>
</g>
<g id="right-leg" transform="translate(186.314 603.105)">
<path id="Vector_80" d="M60.0258 0.114285C76.6548 -0.875715 102.578 4.77431 118.991 9.01931C120.439 9.39431 129.615 13.6993 131.929 14.6693C138.151 17.2843 142.946 18.1643 148.926 19.9893C158.459 22.8993 166.022 22.3743 174.821 23.8443C180.511 24.7943 192.406 28.3643 198.232 30.1093C215.707 35.3093 232.629 39.0443 248.486 48.4393C269.08 60.6393 286.139 77.1843 305.569 90.7543C305.706 90.8143 305.844 90.8743 305.981 90.9293C287.074 71.8443 262.651 53.9743 239.576 40.2243C256.496 40.7193 273.918 52.2993 290.127 58.2243C301.913 62.5293 310.106 64.9993 322.39 68.2593C319.3 74.9943 312.375 95.2193 315.13 102.064C318.06 109.369 320.76 109.314 320.69 118.334C316.255 117.334 310.713 115.914 306.29 115.459C307.985 117.404 317.825 118.754 320.65 119.019C320.865 124.199 321.475 129.354 322.475 134.444C319.165 136.369 315.55 138.259 312.17 140.104C307.602 136.709 292.589 129.474 286.86 126.594C285.403 125.864 282.187 125.939 280.503 126.004C264.415 113.694 241.816 102.434 224.457 91.4593C219.036 88.0343 208.883 82.7893 204.265 78.9443C216.941 84.0793 289.355 114.184 299.65 113.509C292.609 110.414 278.898 106.369 270.87 103.579C253.004 97.3493 235.31 90.6343 217.806 83.4443C213.427 81.6943 204.567 79.1243 200.865 77.0793C194.444 73.5243 179.136 66.0993 174.93 60.4693C169.541 53.2593 167.833 46.7243 159.623 41.8243C165.683 49.2043 169.433 53.6593 174.313 61.9893C168.968 59.3543 162.02 55.1443 156.565 52.1593C155.479 50.8493 153.54 46.8193 152.639 45.1543C147.715 36.0343 143.449 29.3093 133.803 24.9693C144.081 35.6993 144.99 37.8243 152.464 50.1443C150.255 48.8393 139.301 43.1643 138.629 42.2443C131.86 32.9743 124.095 26.3293 113.62 21.2343C111.042 19.9793 102.96 16.1693 100.028 16.6943L99.8933 17.4193C101.711 18.9993 107.161 21.3543 109.647 22.6643C119.167 27.6793 125.48 32.3693 132.364 40.5193C122.86 36.6243 87.3223 25.6993 78.7478 28.3443L78.4838 29.0243C79.8983 30.5193 91.4298 32.5843 95.6278 33.5643C110.848 37.1093 128.047 41.2593 141.702 49.0443C148.732 53.0493 158.26 58.1193 164.02 61.3843C185.145 73.4393 206.116 85.7593 226.93 98.3443L255.533 115.309C262.226 119.274 271.429 124.284 277.071 129.349C259.137 135.864 245.749 159.359 239.818 176.319C232.675 169.059 219.367 163.124 209.102 167.739C202.041 170.909 202.07 172.534 193.831 174.299C172.142 178.939 151.177 177.559 129.746 172.414C126.94 171.759 116.207 169.744 113.834 168.659C94.6968 160.149 77.2798 150.324 60.6073 137.714C51.2473 130.629 40.7563 116.149 31.7868 110.669C38.4958 119.369 45.9653 127.534 53.5123 135.504C26.3328 122.074 4.14528 101.549 0.444776 69.8293C-2.64472 43.3443 10.4623 13.8843 36.6043 4.40432C44.8773 1.40432 51.2868 0.664285 60.0258 0.114285Z" fill="white"/>
<path id="Vector_81" transform="translate(140.953 128.079)" d="M0 0C17.211 3.555 34.584 6.27502 52.058 8.15002C63.059 9.32002 75.1745 9.77497 85.8765 11.16C85.181 11.275 84.482 11.365 83.7805 11.43C72.0315 12.56 6.9715 5.795 0 0Z" fill="#080808"/>
</g>
<g id="left-leg" transform="translate(430.068 622.835)">
<path id="Vector_82" transform="translate(44.6797)" d="M192.991 28.9303C203.976 15.2753 240.412 2.30033 257.272 0.440331C272.867 -1.27967 290.881 1.90532 302.971 12.3653C345.621 49.2803 324.862 108.44 293.207 144.395C267.297 173.835 236.351 207.09 195.741 210.99C194.391 211.125 193.031 211.23 191.676 211.305C192.491 200.565 193.236 192.755 191.726 182.01C213.751 175.4 232.941 169.695 253.251 158.305C258.211 155.575 263.067 152.5 267.822 149.425C271.537 147.03 276.386 146.375 279.981 144.135C292.746 136.19 306.047 120.11 311.012 105.995L311.186 105.515C307.321 109.64 304.332 114.56 300.882 119.045C292.877 129.455 284.501 137.85 272.496 143.415C280.716 133.655 292.912 114.735 295.907 102.45L295.517 101.665L294.827 101.725C287.952 111.79 278.497 132.63 270.277 140.38C244.902 164.305 198.681 175.5 166.126 183.08C170.236 180.92 174.486 179.035 178.726 177.155C203.096 166.355 227.101 154.5 249.926 140.71C253.516 138.54 258.111 135.425 261.791 133.61L260.816 132.715C252.831 137.185 245.186 142.02 237.051 146.495C178.981 178.45 115.441 200.63 52.2415 220.075C47.0815 221.665 40.6015 223.115 35.3565 223.875C13.968 211.28 1.322 181.145 0.183502 157.2C18.4715 155.16 41.9515 150.9 59.4815 145L59.2315 144.665C56.4815 144.85 53.4915 145.89 50.6815 146.49C44.5865 147.73 38.5015 149.005 32.4215 150.32C21.2625 152.65 11.1695 153.975 0 155.75C0.2505 148.67 0.281486 142.735 3.67899 136.36C20.422 126.755 39.5665 117.26 56.7415 108.055C84.2515 93.1803 111.686 78.1603 139.041 63.0053C153.511 55.0453 167.687 49.4253 179.642 38.1753C185.807 32.3703 218.392 28.4703 222.822 24.7053C220.952 21.6753 196.741 27.7703 192.991 28.9303Z" fill="white"/>
<path id="Vector_83" transform="translate(305.497 129.91)" d="M0 2.80499C1.645 1.79999 3.71498 0.295 5.53998 0C4.94998 1.31 2.31998 2.80501 0.974976 3.70001L0 2.80499Z" fill="#262526"/>
<path id="Vector_84" transform="translate(78.8613 26.2305)" d="M154.395 0L154.655 0.109985L154.555 0.89502C153 2.54502 150.12 5.43998 147.935 5.91498C141.8 7.23998 138.21 12.89 134.835 15.085C125.155 21.1 117.565 24.49 107.175 30.155C81.405 44.21 54.375 59.975 28.17 72.935C25 74.5 4.36999 72.66 0.149994 72.36L0 66.15C4.535 63.585 8.915 61.94 13.31 58.805C19.78 54.195 20.305 49.345 21.895 42.16C23.06 36.89 24.865 31.545 26.575 26.49C29.945 26.93 33.06 27.155 36.445 27.405C55.825 28.34 68.665 26.835 87.72 24.08C75.635 30.31 63.69 36.795 51.885 43.535C46.3 46.705 38.255 51.115 33.23 54.855L33.475 55.11C39.275 53.04 45.525 49.335 51.01 46.44C64.21 39.47 77.9 30.89 91.155 24.295C96.43 21.675 110.385 17.39 116.325 15.3C129.275 10.88 141.985 5.77 154.395 0Z" fill="white"/>
<path id="Vector_85" transform="translate(72.9688 48.9248)" d="M7.59328 0C15.2533 1.81 22.9333 2.84497 30.7183 3.90997C25.9383 14.13 26.4833 23.27 21.2383 32.38C20.5683 33.545 17.6083 35.505 16.3483 36.36C12.9133 38.245 7.99327 40.74 4.99327 43.06C0.573275 34.57 -1.40172 30.345 1.09328 20.515C2.86328 13.55 5.34328 6.8 7.59328 0Z" fill="white"/>
<path id="Vector_86" transform="translate(0 110.645)" d="M37.327 0.0259044C42.942 -0.549096 57.8835 8.60589 64.256 11.8209L53.8985 17.3709C42.8865 11.6459 38.3975 18.0059 28.1465 22.0009C23.2675 23.9009 17.714 25.0859 13.295 27.8009C7.84051 32.4509 7.34302 36.5559 5.58252 43.3259L0 44.8909C6.7775 27.3659 18.589 6.6609 37.327 0.0259044Z" fill="white"/>
<path id="Vector_87" transform="translate(79.0068 99.2246)" d="M0 0C6.65 1.905 18.91 1.63501 26.02 1.32001C22.855 3.23501 19.38 5.02998 16.1 6.78998L1.095 14.86C0.520001 9.47499 0.16 5.45 0 0Z" fill="white"/>
</g>
<g id="right-shoe" transform="translate(233.316 773.947)">
<path id="Vector_88" transform="translate(21.9795 12.1924)" d="M33.2486 0C54.4416 7.885 58.5341 46.025 51.9201 64.29C47.9821 75.16 43.2006 81.345 32.9901 86.585C29.1196 86.145 26.9636 85.77 23.2631 84.72C-8.26939 72.935 -4.8679 31.095 16.3271 10.845C21.7911 5.62497 26.4026 3.155 33.2486 0Z" fill="white"/>
<path id="Vector_89" transform="translate(163.85 7.64746)" d="M37.3395 0C38.3225 0.745 37.78 9.88505 37.9 11.925C38.8595 28.21 44.23 44.365 52.716 58.145C41.5715 59.505 23.895 64.035 12.451 66.55L12.053 66.01C17.3085 56.18 13.581 51.05 12.346 40.7C10.915 28.71 15.4775 15.045 0 11.575C2.5945 8.61001 3.73749 7.49501 6.74799 4.95001C19.462 4.45001 25.065 3.68 37.3395 0Z" fill="white"/>
<path id="Vector_90" transform="translate(0 2.60449)" d="M55.4895 0.158419C61.9945 -0.416581 69.822 0.653407 76.166 2.08341C65.6435 2.64841 58.373 3.72338 48.772 8.68338C35.468 15.4834 25.4875 27.3884 21.1065 41.6734C13.9075 65.0384 20.0155 89.9684 45.4345 97.5584L45.528 97.9684L44.99 98.3534C33.807 97.5834 21.187 95.7034 12.753 88.0884C-8.162 69.2034 -1.37801 31.2984 18.832 14.5534C30.015 5.28838 41.722 1.30342 55.4895 0.158419Z" fill="white"/>
<path id="Vector_91" transform="translate(57.5088 7.47461)" d="M17.0985 0.283096C25.8495 -0.886904 38.229 1.88807 47.3 2.82307C64.1585 4.56807 75.8215 3.2281 92.0305 0.0980986L91.8725 0.323074C88.8085 4.61307 88.785 6.27811 86.3485 10.6681C83.452 9.18311 82.5915 9.12307 79.5065 10.2531C73.159 12.5831 76.4315 17.8631 75.1995 20.8531C73.917 22.2781 72.4445 22.2781 70.4905 22.6631C69.326 18.9131 68.661 15.7381 64.8745 13.8031C61.4295 12.0481 58.424 14.9631 56.9945 17.7481C57.6995 19.8131 58.518 21.9131 59.282 23.9631C58.5315 24.0481 53.753 24.6331 53.4875 24.1931C51.3225 20.5881 49.2165 13.873 44.1415 14.173C38.023 16.798 40.1205 20.6781 41.911 25.2731L35.721 25.5681C34.698 21.6431 29.6165 9.77311 22.944 16.6681C21.329 18.3381 23.337 23.3531 24.125 25.5831L18.1045 23.7181C12.658 14.0581 9.7435 9.05306 0 3.74306C6.6385 1.69806 10.1975 0.893096 17.0985 0.283096Z" fill="white"/>
<path id="Vector_92" transform="translate(143.996 22.918)" d="M15.9729 0.0293299C31.3964 -0.77067 25.9104 14.9743 27.6584 25.3043C28.7844 31.9493 30.8329 40.3893 29.7464 46.7943C29.2949 49.4543 23.5739 51.9393 21.2334 52.8293L17.8609 50.1593C11.3764 45.4793 9.10286 44.9093 1.26836 43.5893C-0.200139 29.6093 -0.266626 24.1593 0.425374 10.1043C7.43387 7.68428 10.4909 4.89433 15.9729 0.0293299Z" fill="white"/>
<path id="Vector_93" transform="translate(59.5732 72.6182)" d="M68.6385 0L73.643 0.325012C74.0375 6.14501 76.911 13.385 83.852 8.34003L84.322 7.98999L85.0575 7.46503L85.535 7.11499C87.0795 8.26499 89.0015 11.43 91.33 13.34C73.4005 13.75 58.9675 14.98 41.2575 18.26C29.4545 20.445 11.4485 26.25 0 26.16C3.231 23.865 5.52849 22.295 8.15799 19.315C14.58 12.025 13.522 9.40997 21.937 4.27997C21.144 7.09997 19.6 12.295 23.3555 13.025C30.225 14.365 32.8625 7.05999 34.0315 2.92999C35.703 2.84499 37.3755 2.77002 39.0485 2.71002C40.7485 5.15502 37.9085 6.87999 41.21 9.67999C52.0515 12.66 49.4435 -2.07 56.224 1.125C56.4695 4.59 55.987 8.23498 60.2345 9.03998C65.7825 10.095 67.857 3.85 68.6385 0Z" fill="white"/>
<path id="Vector_94" transform="translate(100.252 24.168)" d="M5.64837 27.9744C4.72587 22.9794 -0.703618 3.93934 0.076382 0.934336C1.90238 -0.0956637 1.06088 -0.0606637 2.77188 0.0593363C2.10188 1.27434 1.85389 1.21933 0.594387 1.92433C3.29839 3.37933 5.18737 -0.820637 7.84237 6.89936C9.98887 13.1394 9.4249 21.4994 12.5029 27.2794C14.1574 30.3894 15.3199 32.6943 16.5064 35.7943C15.3614 29.1093 11.7894 17.8244 11.7924 12.0244C13.3889 11.0144 14.9569 10.9944 16.6564 11.7744C19.9774 20.9094 19.8274 28.4943 17.3294 37.7543C16.5764 40.5493 16.4734 45.3194 14.0274 46.8344C10.0224 43.5044 10.7179 29.1093 8.55038 27.7343C7.94338 32.0343 12.7334 60.3693 1.50888 55.6093C0.527377 52.4043 3.54939 38.5244 4.61239 35.0894C5.54289 32.3144 5.47987 30.8694 5.64837 27.9744Z" fill="white"/>
<path id="Vector_95" transform="translate(133.53 18.9531)" d="M5.81969 0C6.46019 0.065 8.30118 0.18999 8.52568 0.86499C9.41268 3.77499 8.8037 7.94995 8.6057 11.075C7.9037 22.15 7.7037 33.155 8.7607 44.22C9.2107 48.93 10.6517 55.32 9.26668 59.84C7.51968 61.1 7.44967 60.705 4.92967 60.95C-1.34583 57.05 -0.888306 11.8749 2.19569 4.63495C3.46719 1.64995 2.96719 1.61 5.81969 0Z" fill="white"/>
<path id="Vector_96" transform="translate(82.1562 25.8623)" d="M0 0.255005C1.7845 0.270005 3.74251 0.105 5.53851 0C12.101 11.145 13.167 44.14 7.16452 55.195L5.89999 56.57C4.17699 57.235 3.85451 57.475 1.98001 57.295C0.0910109 55.535 1.69252 50.59 2.11002 47.58C4.31202 31.715 3.2885 15.83 0 0.255005Z" fill="white"/>
<path id="Vector_97" transform="translate(144.378)" d="M22.9195 0.137561C32.0975 -0.562439 36.6185 1.36756 43.7255 6.88256L36.4165 8.19756C34.762 7.40256 32.8185 6.85753 31.056 6.29253C22.1515 8.35253 19.162 13.2425 13.4915 19.9275C8.53452 24.3325 5.823 26.7326 0 29.7676C1.266 15.6026 8.35052 3.57256 22.9195 0.137561Z" fill="white"/>
<path id="Vector_98" transform="translate(117.965 25.0479)" d="M3.27692 0C5.99242 0.085 7.1584 2.38502 7.6929 4.90002C8.5829 10.195 12.5504 22.57 11.9644 27.615C11.3734 32.705 8.00642 49.415 5.73242 53.725C3.63592 53.93 3.19892 54.075 1.19592 53.625C-2.15158 50.09 4.7744 28.755 3.8219 22.49C2.8349 15.99 -0.122094 7.97 0.00390639 1.56C1.13891 0.229998 1.21742 0.575 3.27692 0Z" fill="white"/>
<path id="Vector_99" transform="translate(145.235 70.208)" d="M0 0C3.5905 0.465 4.71249 0.569961 8.15149 2.08496C17.284 6.12496 22.6675 15.955 32.928 9.52997C33.9045 8.94997 34.893 7.96995 35.772 7.19495C39.4465 6.27495 43.7715 5.29996 47.3265 4.14996C33.2395 20.1 5.813 27.245 0 0Z" fill="white"/>
<path id="Vector_100" transform="translate(93.9502 36.1279)" d="M0 0C1.8695 0.215 3.99848 0.339995 5.89648 0.494995C7.39648 5.7 8.92099 10.03 10.7505 15.105L11.95 16.015C11.7815 18.91 11.8445 20.355 10.914 23.13L10.1235 22.76C8.515 26.19 6.53098 32.98 4.56598 35.33C2.71848 36.065 3.179 36.18 1.4425 35.955L0.764496 34.95C0.108496 30.605 2.30649 22.13 4.17099 18.115C3.54499 13.71 1.07 4.91 0 0Z" fill="white"/>
<path id="Vector_101" transform="translate(104.073 51.2324)" d="M0.626984 0L1.82648 0.910034C1.65798 3.80503 1.721 5.25002 0.790497 8.02502L0 7.65503C0.813 4.17003 0.742484 3.48 0.626984 0Z" fill="#484847"/>
<path id="Vector_102" transform="translate(76.9775 35.1475)" d="M0 0L4.8735 1.51501C5.9235 12.565 6.49951 25.2 4.89001 36.295C4.50401 38.955 3.84751 39.025 1.95901 40.315L0.859528 40.785L0.307007 40.465C3.72251 24.27 3.5435 16.125 0 0Z" fill="white"/>
<path id="Vector_103" transform="translate(129.47 55.8975)" d="M1.26255 0C2.16205 3.19 3.82805 11.53 1.72355 14.035L0.384073 13.205C-0.689427 11.085 0.777552 2.665 1.26255 0Z" fill="white"/>
<path id="Vector_104" transform="translate(129.386 32.7373)" d="M1.12134 0C2.10284 0.33 1.74935 0.159995 2.54935 0.869995C2.85035 4.38 2.26386 7.55499 1.62436 10.985C1.13536 8.14999 0.513861 5.195 0.0658612 2.38C-0.159639 0.960005 0.194342 1.03 1.12134 0Z" fill="white"/>
</g>
<g id="left-shoe" transform="translate(439.339 753.075)">
<path id="Vector_105" d="M34.8893 0.0351238C36.6063 -0.0698762 39.8179 -0.00987387 40.9799 1.22513C38.3749 4.46013 35.7034 3.01512 34.2559 6.97012C24.2269 34.4001 42.9173 84.8452 69.4613 96.8302L76.9713 95.8102C70.3913 103.015 60.0734 103.355 50.3679 106.7C45.5384 108.235 40.8283 109.745 35.8773 107.375C22.1603 100.81 11.6453 81.5302 6.42684 68.0152C0.589844 52.3502 -2.93517 32.6352 3.25933 16.5802C5.91883 9.68517 15.8378 8.80012 21.9158 5.84012C25.9338 3.88512 30.7283 1.47512 34.8893 0.0351238Z" fill="white"/>
<path id="Vector_106" transform="translate(152.529 60.0244)" d="M37.5564 0C37.7164 1.215 34.3214 8.05 33.5414 9.935C24.6164 31.42 20.0465 59.43 26.9715 81.97C20.3165 79.72 16.8815 77.695 11.4565 73.39C-5.70854 57.785 -4.01355 15.685 19.4464 6.11005C25.1114 3.80005 31.6764 1.815 37.5564 0Z" fill="white"/>
<path id="Vector_107" transform="translate(179.783 54.4951)" d="M33.2383 0.0599976L34.4183 0C34.8933 1.09 32.6733 3.68997 31.9783 4.90497C20.3583 25.245 9.27827 68.175 20.5983 89.805C16.1283 90.115 11.6383 90.055 7.17829 89.635C6.90829 89.57 5.36332 89.235 5.08832 89.06C1.50332 86.78 0.683317 76.835 0.398317 73.29C-1.51168 49.485 3.4583 24.965 15.0733 4.09998C21.2533 2.60998 26.9933 1.245 33.2383 0.0599976Z" fill="white"/>
<path id="Vector_108" transform="translate(199.891 52.6445)" d="M21.5702 0L22.5652 0.5C27.5302 11.29 15.8851 89.7101 3.49014 88.6201C-6.30486 67.5901 6.05016 16.875 21.5702 0Z" fill="white"/>
<path id="Vector_109" transform="translate(142.981 73.1094)" d="M11.2952 0L13.4252 1.39502C11.8952 7.56502 7.81018 12.98 6.61518 21.925C5.88018 27.415 6.76017 41.385 5.73017 43.84L4.89021 44.05C0.835207 41.515 0.490156 36.675 0.150156 32.34C-0.754844 20.83 2.54016 11.45 7.09516 1.09003L11.2952 0Z" fill="white"/>
<path id="Vector_110" transform="translate(91.4561 90.0098)" d="M12.15 0C13.625 0.145 15.105 7.32999 16.17 9.23499C17.26 11.19 18.05 12.93 19.29 14.9C15.515 14.715 13.155 14.75 9.80499 13C6.55499 10.19 3.075 6.67997 0 3.65497C3.515 2.25497 8.42002 1.035 12.15 0Z" fill="white"/>
<path id="Vector_111" transform="translate(110.376 99.8447)" d="M0 0C1.805 0.575 3.12998 0.97002 4.97498 1.39502C9.64498 -2.23498 8.22497 6.01505 12.78 6.61005C14.225 6.80005 14.785 6.69499 16.095 5.92999C17.31 4.07499 16.345 3.25502 17.215 1.21002C21.805 3.31502 19.3049 11.045 25.5099 11.995C27.3899 11.625 27.735 11.025 29.225 9.625L29.73 9.14001C32.59 12.555 31.675 15.51 35.77 19.66L35.415 20.635C30.79 17.615 25.995 14.865 21.05 12.4C12.305 8.11002 6.68 7.365 0 0Z" fill="white"/>
<path id="Vector_112" transform="translate(56.1855 106.927)" d="M12.0755 0.172966C19.1105 -0.637034 57.2405 1.49797 61.6405 4.48797C59.6855 4.99797 55.1205 4.57299 52.8505 4.44799C35.1305 3.12799 17.5755 3.30797 0 2.29797C3.948 1.47797 8.0905 0.842966 12.0755 0.172966Z" fill="white"/>
<path id="Vector_113" transform="translate(131.535 79.7197)" d="M4.14621 0C4.69621 0.59 4.55617 0.265046 4.66617 0.985046C4.70617 1.26505 4.74617 1.55002 4.79117 1.83502C5.34617 5.32502 6.68116 27.81 5.34616 29.715L3.60617 29.725C-2.07383 23.31 -0.0138309 11.185 2.79117 3.77002C3.25117 2.54502 3.64122 1.73503 4.02622 0.410034L4.14621 0Z" fill="white"/>
<path id="Vector_114" transform="translate(118.121 82.9443)" d="M6.71971 0L6.98973 0.0799561C7.55473 1.05996 6.6447 5.36997 6.3397 6.46497C5.1497 10.69 7.39471 16.075 6.09971 19.935C4.49471 20.57 5.38473 20.42 3.23973 19.675C-0.295273 14.885 0.00974178 8.06495 0.00474178 2.32495L6.71971 0Z" fill="white"/>
<path id="Vector_115" transform="translate(138.549 76.0244)" d="M7.01219 0L7.37718 0.445007C6.14718 4.53001 4.40715 8.75505 3.35215 12.9301C2.53215 16.1801 3.44214 25.535 1.70714 27.59C-0.582865 22.165 -0.177838 8.09501 0.672162 2.26001C2.70716 1.46001 4.93719 0.73 7.01219 0Z" fill="white"/>
<path id="Vector_116" transform="translate(107.571 86.4844)" d="M6.68005 0C8.53005 1.68 5.925 7.64002 6.875 9.95502C7.2 10.755 7.37006 11.125 7.62006 11.92L7.89001 12.705L3.755 11.6L3.15002 11.49C0.720024 9.27499 0.57 5.59002 0 2.27002L6.68005 0Z" fill="white"/>
<path id="Vector_117" transform="translate(126.164 80.4951)" d="M6.39173 0L7.0517 0.0949707L7.34168 0.880005C5.22668 6.03501 3.8867 11.345 3.2367 16.865C2.9717 17.105 2.71172 17.345 2.44672 17.59C-1.43328 13.72 -0.128298 6.15 2.4267 1.81C3.1867 0.509998 5.00173 0.305 6.39173 0Z" fill="white"/>
<path id="Vector_118" transform="translate(154.276 70.0244)" d="M0 3.08502C2.25 2.02502 4.51999 0.995 6.79999 0C5.59999 1.475 3.86 4.07004 2.13 4.48004L0 3.08502Z" fill="white"/>
</g>
<g id="ground-details" transform="translate(200.854 815.56)">
<path id="Vector_119" transform="translate(554.387 13.4678)" d="M11.495 0.0278502C16.685 -0.0471498 21.04 -0.0321694 26.17 0.882831C24.955 1.88283 2.87 1.43287 0 1.04787C3.185 0.73287 12.655 1.34788 14.59 0.747882L11.495 0.0278502Z" fill="#484847"/>
<path id="Vector_120" transform="translate(523.691)" d="M15.65 0.0158901C17.755 -0.0291099 24.17 -0.0491392 25.68 0.985861C22.465 1.69086 3.655 1.76085 0 1.10085C1.23 0.810851 16.415 0.925861 19.705 0.735861C18.075 0.640861 17.215 0.39089 15.65 0.0158901Z" fill="#626361"/>
<path id="Vector_121" transform="translate(552.361 25.376)" d="M0 0.143976C2.785 0.0939764 13.8 -0.356024 15.355 0.643976L14.295 0.943964C9.65498 0.588964 4.525 1.21898 0 0.143976Z" fill="#484847"/>
<path id="Vector_122" transform="translate(190.883 47.5859)" d="M10.1095 3.59488L10.8815 3.50491C15.3385 2.96991 19.64 0.799901 23.363 0.429901C29.049 -0.140099 35.6365 -0.0101355 41.528 0.0798645C54.2025 0.264864 67.387 -0.0301208 80.0035 1.21988C83.19 2.13988 85.128 3.28988 88.519 3.47488C92.4915 3.77488 97.655 1.27988 101.41 1.34488C119.649 1.63988 137.948 2.07991 156.143 3.43991C165.148 4.11491 170.719 3.00991 178.964 7.43991C154.534 7.13991 129.719 5.89987 105.21 5.27487L26.274 3.9249C20.2025 4.5049 5.9545 4.7849 0 4.0549L1.69699 3.05991C3.12049 3.18991 9.387 3.45488 10.1095 3.59488Z" fill="white"/>
<path id="Vector_123" transform="translate(190.883 50.6455)" d="M1.69699 0C3.12049 0.13 9.387 0.394973 10.1095 0.534973C15.721 1.22497 21.096 0.35499 26.274 0.86499C20.2025 1.44499 5.9545 1.725 0 0.994995L1.69699 0Z" fill="#7D7E7D"/>
<path id="Vector_124" transform="translate(218.614 42.9941)" d="M2.15601 0.0515687C16.4615 -0.0934313 30.768 0.0665589 45.066 0.541559C46.4175 1.43156 46.5875 1.46161 47.683 2.72161L46.6575 3.01159L13.5125 2.49157C11.02 2.45657 1.8275 2.64156 0 2.16656C0.455 0.996559 0.954006 0.951569 2.15601 0.0515687Z" fill="white"/>
<path id="Vector_125" transform="translate(154.533 49.5059)" d="M0 0.999508C10.4555 0.0345078 27.7385 -0.715478 38.0465 1.13952L36.3495 2.13452C24.3705 1.44452 11.8375 2.74451 0 0.999508Z" fill="white"/>
<path id="Vector_126" transform="translate(384.276 55.3467)" d="M0.35498 1.67394C5.03498 1.33394 3.845 -0.421074 5.685 0.093926C7.485 3.77393 9.50001 8.24894 11.515 11.7339C7.78501 8.48394 4.135 5.39892 0 2.64892L0.35498 1.67394Z" fill="white"/>
<path id="Vector_127" transform="translate(313.401 39.8955)" d="M2.33002 0C5.86002 0.15 19.2 -0.580024 20.64 2.22498L19.37 2.39996C16.935 2.32996 0.86 2.38001 0 1.69501L2.33002 0Z" fill="white"/>
<path id="Vector_128" transform="translate(231.772 38.3037)" d="M0 0.7816C5.846 0.0366 20.3685 -0.408395 26.1385 0.536605C27.107 0.636605 26.599 0.481595 27.6065 1.1516L27.38 1.64659C21.987 2.14659 16.53 1.44156 11.3935 1.67656C8.26499 1.69656 3.2635 1.0866 0 0.7816Z" fill="white"/>
<path id="Vector_129" transform="translate(231.772 38.3037)" d="M0 0.7816C5.846 0.0366 20.3685 -0.408395 26.1385 0.536605C23.636 0.636605 10.8165 0.2916 9.66901 1.0316L11.3935 1.67656C8.26499 1.69656 3.2635 1.0866 0 0.7816Z" fill="#7D7E7D"/>
<path id="Vector_130" transform="translate(201.402 35.79)" d="M0 1.39001C4.1905 0.680015 7.84101 0.305 12.0685 0C11.1895 0.775 10.201 1.75502 9.22452 2.33502C7.71202 1.57002 2.1035 1.51501 0 1.39001Z" fill="#626361"/>
<path id="Vector_131" transform="translate(318.481 36.1982)" d="M0 0.442489C3.635 0.00748903 8.15001 -0.512501 11.445 1.0775C7.60001 1.4075 3.765 1.32749 0 0.442489Z" fill="#A0A0A4"/>
<path id="Vector_132" transform="translate(456.757 63.3154)" d="M0.315002 1.35498L0 0L12.88 0.184998C17.965 0.0649976 22.555 -0.130017 27.58 0.794983C26.575 2.03498 11.955 1.64 9.625 1.56C6.08 1.645 3.82 1.69498 0.315002 1.35498Z" fill="#080808"/>
<path id="Vector_133" transform="translate(466.382 63.3965)" d="M3.255 0.103762C8.34 -0.0162384 12.93 -0.211253 17.955 0.713747C16.95 1.95375 2.33 1.55876 0 1.47876C3.07 0.923762 6.32002 0.953771 9.45502 0.863771C7.42002 0.408771 5.34 0.293762 3.255 0.103762Z" fill="#626361"/>
<path id="Vector_134" transform="translate(0 34.4121)" d="M29.9485 0.373715L30.5565 1.80377C20.8595 1.63877 9.5285 1.65375 0 0.658749C2.769 -0.361251 26.0855 0.0187152 29.9485 0.373715Z" fill="#262526"/>
<path id="Vector_135" transform="translate(5.06055 41.3779)" d="M0 0.667103C6.7765 0.182103 21.5525 -0.39288 28.043 0.37212L28.7 1.65709C20.732 1.76709 7.3955 1.7471 0 0.667103Z" fill="#080808"/>
<path id="Vector_136" transform="translate(9.45312 27.9385)" d="M18.939 1.53176C14.094 1.67176 4.8805 1.2567 0 0.601704C3.5015 -0.293296 14.7545 0.0567239 18.878 0.121724L18.939 1.53176Z" fill="#262526"/>
<path id="Vector_137" transform="translate(17.5264 48.3281)" d="M20.4425 0.0923668L20.98 1.39736C16.9505 1.32736 12.9215 1.21239 8.894 1.05739C6.0495 1.17239 2.7135 1.3524 0 0.497396C1.2515 -0.107604 1.5815 0.117394 3.104 0.182394C8.903 -0.112606 14.6395 0.0223668 20.4425 0.0923668Z" fill="#080808"/>
<path id="Vector_138" transform="translate(17.5264 48.415)" d="M8.894 0.969923C6.0495 1.08492 2.7135 1.26493 0 0.409925C1.2515 -0.195075 1.5815 0.0299229 3.104 0.0949229C4.874 0.359923 7.1885 0.624923 8.894 0.969923Z" fill="#626361"/>
<path id="Vector_139" transform="translate(454.297 70.8408)" d="M0 0C7.155 0.105 14.3 0.104993 21.43 0.679993C17.345 1.25999 4.28495 1.89 0.0699463 1.12C0.124946 0.964995 0.02 0.205 0 0Z" fill="#262526"/>
<path id="Vector_140" transform="translate(225.45 57.8955)" d="M13.3175 1.39949C9.74 1.58949 4.64101 1.28953 1.06851 0.944532L0.315002 0.429517L0.0140076 0.449537L0 0.36952L0.415009 0.7245L0.723511 0.269483C5.55951 -0.100517 15.9475 -0.1405 20.714 0.4745C18.326 0.5495 15.321 0.359488 13.3175 1.39949Z" fill="#484847"/>
<path id="Vector_141" transform="translate(548.996 5.97461)" d="M0.0200195 0.020383C3.09002 -0.019617 12.71 -0.099617 15.195 0.895383C10.765 1.67038 4.545 1.48541 0 1.42041L3.22504 0.760373L0.0200195 0.020383Z" fill="#262526"/>
<path id="Vector_142" transform="translate(382.871 80.9346)" d="M15.135 1.52111C10.335 1.37111 4.73 1.13608 0 0.486079L0.170044 0.266108C5.27504 0.0561083 9.62001 -0.0789186 14.76 0.0510814L15.135 1.52111Z" fill="#262526"/>
<path id="Vector_143" transform="translate(32.3398 53.2754)" d="M10.417 0L11.7735 1.125C8.22751 1.27 3.453 1.35 0 0.815002C2.9115 0.180002 7.31351 0.13 10.417 0Z" fill="#262526"/>
<path id="Vector_144" transform="translate(450.102 77.3008)" d="M0.774963 0C2.78996 0.83 7.98996 -0.464988 10.77 0.200012L10.565 0.590027C7.365 0.855027 3.14 1.325 0 1.12L0.774963 0Z" fill="#7D7E7D"/>
<path id="Vector_145" transform="translate(19.4033 21.9277)" d="M8.4545 0.00724087L8.384 1.06724C6.064 1.11724 3.7425 1.08722 1.4245 0.982216L0.797501 0.312234L0.527496 0.347268L0.436493 0.837258L0.205002 0.782265L0 0.427224C0.4005 0.882224 0.141493 0.727248 0.811493 0.827248L1.172 0.187234C3.079 -0.0727665 6.4245 0.0172409 8.4545 0.00724087Z" fill="#484847"/>
<path id="Vector_146" transform="translate(369.206 74.7666)" d="M6.685 1.15404C4.46 1.24904 2.03 1.43905 0 0.534049C1.43 -0.155951 2.935 0.0240904 4.565 0.0140904L6.685 1.15404Z" fill="#484847"/>
</g>
</g>
<defs>
<clipPath id="clip0_43_3854">
<rect width="1024" height="1024" fill="white"/>
</clipPath>
</defs>
</svg>
